<svg width="48.000000" height="48.000000" viewBox="0 0 48 48" fill="none" xmlns="http://www.w3.org/2000/svg" xmlns:xlink="http://www.w3.org/1999/xlink">
	<desc>
			Created with Pixso.
	</desc>
	<defs>
		<clipPath id="clip27_984">
			<rect id="ic-target" width="48.000000" height="48.000000" fill="white" fill-opacity="0"/>
		</clipPath>
	</defs>
	<g clip-path="url(#clip27_984)">
		<path id="Vector" d="M33.2983 37C32.9795 36.6699 32.3916 36.5752 31.9595 36.9883C31.9565 36.9912 31.9536 36.9941 31.9507 36.9971C31.5239 37.417 31.6011 38.0068 31.9219 38.335C32.0923 38.5098 32.3384 38.6172 32.5962 38.6172C32.8232 38.6172 33.0596 38.5342 33.2607 38.3389C33.6899 37.9219 33.6172 37.3311 33.2983 37Z" fill="#FF3F3A" fill-opacity="1.000000" fill-rule="nonzero"/>
		<path id="Vector" d="M41.7861 18.9521C41.6064 18.4668 41.0669 18.2188 40.5815 18.3984C40.0962 18.5781 39.8481 19.1172 40.0283 19.6025C40.8374 21.7881 41.2476 24.0879 41.2476 26.4395C41.2476 37.2939 32.417 46.125 21.563 46.125C17.5352 46.125 13.6636 44.917 10.3657 42.6318C9.94043 42.3369 9.35645 42.4434 9.06152 42.8682C8.7666 43.2939 8.87256 43.8779 9.29834 44.1729C12.9111 46.6758 17.1519 47.999 21.563 47.999C27.3218 47.999 32.7358 45.7568 36.8081 41.6846C40.8799 37.6123 43.1226 32.1982 43.1226 26.4395C43.1226 23.8652 42.6729 21.3457 41.7861 18.9521Z" fill="#FF3F3A" fill-opacity="1.000000" fill-rule="nonzero"/>
		<path id="Vector" d="M28.8232 6.13379C26.4976 5.30273 24.0552 4.88086 21.5635 4.88086C15.8047 4.88086 10.3906 7.12305 6.31836 11.1953C2.24658 15.2676 0.00390625 20.6816 0.00390625 26.4404C0.00390625 30.9062 1.35742 35.1904 3.91797 38.8311C4.10059 39.0898 4.39062 39.2285 4.68555 39.2285C4.87158 39.2285 5.06006 39.1738 5.22412 39.0586C5.64746 38.7598 5.74902 38.1758 5.45117 37.752C3.11426 34.4297 1.87842 30.5176 1.87842 26.4404C1.87842 15.5859 10.709 6.75586 21.5635 6.75586C23.8394 6.75586 26.0693 7.14062 28.1919 7.89941C28.6792 8.07324 29.2158 7.81934 29.3901 7.33203C29.5645 6.84473 29.3105 6.30859 28.8232 6.13379Z" fill="#FF3F3A" fill-opacity="1.000000" fill-rule="nonzero"/>
		<path id="Vector" d="M47.9248 7.77344C47.7793 7.42383 47.438 7.19531 47.0586 7.19531L42.1333 7.19531L42.6631 6.66504C43.0288 6.2998 43.0288 5.70605 42.6631 5.33984C42.2969 4.97363 41.7036 4.97363 41.3374 5.33984L40.8008 5.87598L40.8008 0.9375C40.8008 0.558594 40.5723 0.216797 40.2222 0.0712891C39.8716 -0.0732422 39.4688 0.00683594 39.2007 0.274414L30.937 8.53809C30.7612 8.71387 30.6626 8.95215 30.6626 9.20117L30.6626 12.4521C27.9585 10.6836 24.8418 9.75586 21.562 9.75586C12.3618 9.75586 4.87695 17.2402 4.87695 26.4404C4.87695 35.6406 12.3618 43.126 21.562 43.126C24.6157 43.126 27.603 42.293 30.2012 40.7178C30.644 40.4492 30.7852 39.873 30.5171 39.4297C30.2485 38.9873 29.6724 38.8457 29.2295 39.1143C26.9243 40.5117 24.2729 41.251 21.562 41.251C13.3955 41.251 6.75146 34.6074 6.75146 26.4404C6.75146 18.2734 13.3955 11.6299 21.562 11.6299C24.897 11.6299 28.042 12.7109 30.6626 14.7559L30.6626 16.0146L28.9541 17.7227C26.9595 16.0283 24.3784 15.0049 21.562 15.0049C15.2563 15.0049 10.126 20.1348 10.126 26.4404C10.126 32.7461 15.2563 37.876 21.562 37.876C27.8677 37.876 32.998 32.7461 32.998 26.4404C32.998 23.624 31.9741 21.043 30.2798 19.0479L31.9951 17.333L33.2422 17.333C35.2627 19.9229 36.3726 23.1445 36.3726 26.4404C36.3726 29.2041 35.6064 31.8994 34.1577 34.2354C33.8848 34.6748 34.0205 35.2529 34.4604 35.5254C34.6143 35.6211 34.7847 35.667 34.9536 35.667C35.2671 35.667 35.5737 35.5088 35.751 35.2236C37.3843 32.5908 38.2471 29.5537 38.2471 26.4404C38.2471 23.2021 37.2959 20.0273 35.5425 17.333L38.7949 17.333C39.0435 17.333 39.2817 17.2344 39.4575 17.0586L47.7212 8.79492C47.9893 8.52734 48.0698 8.12402 47.9248 7.77344ZM31.1235 26.4404C31.1235 31.7129 26.8345 36.002 21.5625 36.002C16.29 36.002 12.001 31.7129 12.001 26.4404C12.001 21.1689 16.29 16.8789 21.5625 16.8789C23.8613 16.8789 25.9736 17.6953 27.6245 19.0527L25.4897 21.1875C24.394 20.3662 23.0342 19.8789 21.5625 19.8789C17.9443 19.8789 15.001 22.8223 15.001 26.4404C15.001 30.0586 17.9443 33.002 21.5625 33.002C25.1807 33.002 28.124 30.0586 28.124 26.4404C28.124 24.9688 27.6367 23.6084 26.8154 22.5127L28.9502 20.3779C30.3076 22.0293 31.1235 24.1416 31.1235 26.4404ZM20.8994 27.1035C21.0825 27.2861 21.3223 27.3779 21.5625 27.3779C21.8022 27.3779 22.042 27.2861 22.2251 27.1035L25.4707 23.8574C25.9619 24.5986 26.249 25.4863 26.249 26.4404C26.249 29.0244 24.1465 31.127 21.5625 31.127C18.978 31.127 16.8755 29.0244 16.8755 26.4404C16.8755 23.8564 18.978 21.7539 21.5625 21.7539C22.5161 21.7539 23.4038 22.041 24.145 22.5322L20.8994 25.7773C20.5332 26.1436 20.5332 26.7373 20.8994 27.1035ZM32.5376 14.1396L32.5376 9.58887L38.9263 3.2002L38.9263 7.75098L32.5376 14.1396ZM38.4067 15.459L33.8701 15.459L40.2588 9.07031L44.7954 9.07031L38.4067 15.459Z" fill="#FF3F3A" fill-opacity="1.000000" fill-rule="nonzero"/>
		<path id="Vector" d="M7.62451 40.3398C7.4502 40.166 7.2085 40.0654 6.96191 40.0654C6.71436 40.0654 6.47266 40.166 6.29932 40.3398C6.12402 40.5146 6.02441 40.7559 6.02441 41.0029C6.02441 41.249 6.12402 41.4912 6.29932 41.666C6.47314 41.8398 6.71436 41.9404 6.96191 41.9404C7.2085 41.9404 7.4502 41.8398 7.62451 41.666C7.79883 41.4912 7.89941 41.249 7.89941 41.0029C7.89941 40.7559 7.79883 40.5156 7.62451 40.3398Z" fill="#FF3F3A" fill-opacity="1.000000" fill-rule="nonzero"/>
	</g>
</svg>
