<svg width="20.000000" height="20.000000" viewBox="0 0 20 20" fill="none" xmlns="http://www.w3.org/2000/svg" xmlns:xlink="http://www.w3.org/1999/xlink">
	<desc>
			Created with Pixso.
	</desc>
	<defs/>
	<g opacity="0.600000">
		<path id="Vector" d="M14.6357 0.837891L12.3213 0.833984C9.72119 0.833984 8.04102 2.60547 8.04102 5.3457L8.04102 7.42578L5.71387 7.42578C5.5127 7.42578 5.3501 7.59375 5.3501 7.80078L5.3501 10.8145C5.3501 11.0215 5.51318 11.1875 5.71387 11.1875L8.04102 11.1875L8.04102 18.793C8.04102 19 8.20361 19.168 8.40479 19.168L11.4409 19.168C11.6421 19.168 11.8052 19 11.8052 18.793L11.8052 11.1875L14.5259 11.1875C14.7271 11.1875 14.8896 11.0215 14.8896 10.8145L14.8906 7.80078C14.8906 7.70117 14.8525 7.60547 14.7842 7.53516C14.7163 7.46484 14.623 7.42578 14.5269 7.42578L11.8052 7.42578L11.8052 5.66211C11.8052 4.81445 12.0015 4.38477 13.0762 4.38477L14.6353 4.38477C14.8364 4.38477 14.999 4.2168 14.999 4.00977L14.999 1.21094C14.999 1.00586 14.8364 0.837891 14.6357 0.837891Z" fill="#FFFFFF" fill-opacity="1.000000" fill-rule="nonzero"/>
	</g>
</svg>
