<svg width="48.000000" height="48.000000" viewBox="0 0 48 48" fill="none" xmlns="http://www.w3.org/2000/svg" xmlns:xlink="http://www.w3.org/1999/xlink">
	<desc>
			Created with Pixso.
	</desc>
	<defs>
		<clipPath id="clip27_1003">
			<rect id="ic-chat" width="48.000000" height="48.000000" fill="white" fill-opacity="0"/>
		</clipPath>
	</defs>
	<g clip-path="url(#clip27_1003)">
		<path id="Vector" d="M45.3491 26.4414C47.085 23.6904 47.9995 20.5244 47.9995 17.25C47.9995 7.73828 40.2612 0 30.75 0C27.564 0 24.4512 0.875977 21.748 2.53223C21.3066 2.80273 21.168 3.37988 21.4385 3.82129C21.709 4.2627 22.2861 4.40137 22.7275 4.13086C25.1357 2.65527 27.9097 1.875 30.75 1.875C39.2275 1.875 46.125 8.77246 46.125 17.25C46.125 20.3242 45.2202 23.292 43.5093 25.8311C43.2822 26.168 43.3018 26.6035 43.5352 26.916L44.5625 30.75L40.439 29.6445C40.1689 29.5723 39.8804 29.624 39.6528 29.7861C37.043 31.6436 33.9644 32.625 30.75 32.625C28.9185 32.625 27.1274 32.3047 25.4243 31.6758C24.2251 27.2598 20.7407 23.7754 16.3247 22.5762C15.6948 20.873 15.375 19.082 15.375 17.25C15.375 14.3789 16.1714 11.5781 17.6782 9.15137C17.9512 8.71191 17.8159 8.13379 17.376 7.86035C16.9365 7.58691 16.3584 7.72266 16.085 8.16211C14.394 10.8867 13.5 14.0283 13.5 17.25C13.5 18.9365 13.7422 20.5918 14.2192 22.1885C13.7974 22.1475 13.3701 22.125 12.9375 22.125C5.80371 22.125 0 27.9287 0 35.0625C0 37.623 0.740234 40.0801 2.14502 42.1992L1.1416 45.9443C1.05469 46.2676 1.14746 46.6123 1.38428 46.8496C1.62109 47.0859 1.96582 47.1787 2.28955 47.0918L6.12744 46.0635C8.1709 47.332 10.5161 48 12.9375 48C15.4019 48 17.7983 47.3047 19.8691 45.9883C20.3062 45.7109 20.4351 45.1309 20.1572 44.6943C19.8794 44.2568 19.2998 44.1279 18.8633 44.4062C17.0938 45.5303 15.0449 46.125 12.9375 46.125C10.7437 46.125 8.62354 45.4844 6.80566 44.2715C6.58154 44.1211 6.30371 44.0752 6.04297 44.1455L3.37256 44.8604L4.06787 42.2666C4.14014 41.9961 4.08789 41.707 3.92529 41.4795C2.58398 39.5996 1.875 37.3809 1.875 35.0625C1.875 28.9629 6.8374 24 12.9375 24C19.0371 24 24 28.9629 24 35.0625C24 36.3652 23.7759 37.6406 23.334 38.8516C23.1567 39.3379 23.4072 39.877 23.8936 40.0537C24.3804 40.2314 24.9185 39.9805 25.0957 39.4941C25.6128 38.0762 25.875 36.585 25.875 35.0625C25.875 34.6299 25.853 34.2031 25.8115 33.7812C27.4082 34.2578 29.064 34.5 30.75 34.5C34.207 34.5 37.5244 33.4873 40.373 31.5684L45.6455 32.9814C45.9692 33.0674 46.3145 32.9756 46.5513 32.7383C46.7881 32.502 46.8809 32.1562 46.7939 31.833L45.3491 26.4414Z" fill="#FF3F3A" fill-opacity="1.000000" fill-rule="nonzero"/>
		<path id="Vector" d="M35.5825 19.2461L26.0337 19.2461C25.5161 19.2461 25.0962 19.666 25.0962 20.1836C25.0962 23.333 27.6587 25.8955 30.8081 25.8955C33.9575 25.8955 36.52 23.333 36.52 20.1836C36.52 19.666 36.1001 19.2461 35.5825 19.2461ZM30.8081 24.0205C29.0156 24.0205 27.5063 22.7852 27.0869 21.1211L34.5293 21.1211C34.1094 22.7852 32.6001 24.0205 30.8081 24.0205Z" fill="#FF3F3A" fill-opacity="1.000000" fill-rule="nonzero"/>
		<path id="Vector" d="M38.1079 14.0459C37.8364 13.6045 37.2588 13.4678 36.8179 13.7393L36.6958 13.8145C36.2554 14.0869 36.1187 14.6641 36.3911 15.1045C36.5684 15.3916 36.8755 15.5498 37.1895 15.5498C37.3574 15.5498 37.5278 15.5049 37.6816 15.4092L37.8013 15.335C38.2422 15.0635 38.3794 14.4863 38.1079 14.0459Z" fill="#FF3F3A" fill-opacity="1.000000" fill-rule="nonzero"/>
		<path id="Vector" d="M25.2266 14.0459C24.9551 13.6045 24.3774 13.4678 23.9365 13.7393L23.8145 13.8145C23.374 14.0869 23.2373 14.6641 23.5098 15.1045C23.687 15.3916 23.9941 15.5498 24.3081 15.5498C24.4761 15.5498 24.6465 15.5049 24.8003 15.4092L24.9204 15.335C25.3608 15.0635 25.498 14.4863 25.2266 14.0459Z" fill="#FF3F3A" fill-opacity="1.000000" fill-rule="nonzero"/>
		<path id="Vector" d="M8.44287 34.3994C8.26855 34.2256 8.02686 34.125 7.78027 34.125C7.53369 34.125 7.29199 34.2256 7.11768 34.3994C6.94287 34.5742 6.84277 34.8164 6.84277 35.0625C6.84277 35.3086 6.94287 35.5508 7.11768 35.7256C7.29199 35.8994 7.53369 36 7.78027 36C8.02686 36 8.26855 35.8994 8.44287 35.7256C8.61768 35.5508 8.71777 35.3086 8.71777 35.0625C8.71777 34.8164 8.61768 34.5742 8.44287 34.3994Z" fill="#FF3F3A" fill-opacity="1.000000" fill-rule="nonzero"/>
		<path id="Vector" d="M13.5991 34.3994C13.4248 34.2256 13.1831 34.125 12.9365 34.125C12.6899 34.125 12.4482 34.2256 12.2739 34.3994C12.0991 34.5742 11.999 34.8164 11.999 35.0625C11.999 35.3086 12.0991 35.5508 12.2739 35.7256C12.4482 35.8994 12.6899 36 12.9365 36C13.1831 36 13.4248 35.8994 13.5991 35.7256C13.7739 35.5508 13.874 35.3086 13.874 35.0625C13.874 34.8164 13.7739 34.5742 13.5991 34.3994Z" fill="#FF3F3A" fill-opacity="1.000000" fill-rule="nonzero"/>
		<path id="Vector" d="M18.7563 34.3994C18.582 34.2256 18.3403 34.125 18.0938 34.125C17.8472 34.125 17.6055 34.2256 17.4312 34.3994C17.2563 34.5742 17.1562 34.8164 17.1562 35.0625C17.1562 35.3086 17.2563 35.5508 17.4312 35.7256C17.6055 35.8994 17.8472 36 18.0938 36C18.3403 36 18.582 35.8994 18.7563 35.7256C18.9312 35.5508 19.0312 35.3086 19.0312 35.0625C19.0312 34.8164 18.9312 34.5742 18.7563 34.3994Z" fill="#FF3F3A" fill-opacity="1.000000" fill-rule="nonzero"/>
		<path id="Vector" d="M22.9526 41.918C22.7783 41.7441 22.5366 41.6436 22.29 41.6436C22.0425 41.6436 21.8018 41.7441 21.6274 41.918C21.4526 42.0928 21.3525 42.335 21.3525 42.5811C21.3525 42.8271 21.4526 43.0693 21.6274 43.2441C21.8018 43.418 22.0425 43.5186 22.29 43.5186C22.5366 43.5186 22.7783 43.418 22.9526 43.2441C23.1274 43.0693 23.2275 42.8271 23.2275 42.5811C23.2275 42.335 23.1274 42.0928 22.9526 41.918Z" fill="#FF3F3A" fill-opacity="1.000000" fill-rule="nonzero"/>
		<path id="Vector" d="M19.9097 5.02148C19.7354 4.84766 19.4937 4.74805 19.2471 4.74805C18.9995 4.74805 18.7588 4.84766 18.5845 5.02148C18.4092 5.19727 18.3096 5.43848 18.3096 5.68555C18.3096 5.93164 18.4092 6.17383 18.5845 6.34863C18.7588 6.52246 18.9995 6.62207 19.2471 6.62207C19.4937 6.62207 19.7354 6.52246 19.9097 6.34863C20.0845 6.17383 20.1846 5.93164 20.1846 5.68555C20.1846 5.43848 20.0845 5.19727 19.9097 5.02148Z" fill="#FF3F3A" fill-opacity="1.000000" fill-rule="nonzero"/>
	</g>
</svg>
