<svg width="20.000000" height="20.000000" viewBox="0 0 20 20" fill="none" xmlns="http://www.w3.org/2000/svg" xmlns:xlink="http://www.w3.org/1999/xlink">
	<desc>
			Created with Pixso.
	</desc>
	<defs/>
	<path id="Vector" d="M0 2.40234C0 1.07617 1.07568 0 2.40186 0C3.72656 0 4.80273 1.07617 4.80322 2.40234C4.80322 3.72656 3.72754 4.82617 2.40186 4.82617C1.07568 4.82617 0 3.72656 0 2.40234ZM19.9951 20L20 20L20 12.6641C20 9.07617 19.2275 6.3125 15.0327 6.3125C13.0156 6.3125 11.6626 7.41797 11.1099 8.4668L11.0518 8.4668L11.0518 6.64648L7.07422 6.64648L7.07422 20L11.2158 20L11.2158 13.3867C11.2158 11.6465 11.5459 9.96289 13.7017 9.96289C15.8257 9.96289 15.8574 11.9492 15.8574 13.5L15.8574 20L19.9951 20ZM0.330078 6.64844L4.47656 6.64844L4.47656 20L0.330078 20L0.330078 6.64844Z" fill="#FFFFFF" fill-opacity="1.000000" fill-rule="evenodd"/>
</svg>
