<svg width="20.000000" height="20.000000" viewBox="0 0 20 20" fill="none" xmlns="http://www.w3.org/2000/svg" xmlns:xlink="http://www.w3.org/1999/xlink">
	<desc>
			Created with Pixso.
	</desc>
	<defs>
		<clipPath id="clip33_648">
			<rect id="Instagram" width="20.000000" height="20.000000" fill="white" fill-opacity="0"/>
		</clipPath>
	</defs>
	<g opacity="0.600000">
		<g clip-path="url(#clip33_648)">
			<path id="Vector" d="M18.3169 6.56641C18.2778 5.67969 18.1348 5.07227 17.9297 4.54492C17.7178 3.98438 17.3921 3.48242 16.9658 3.06641C16.5488 2.64258 16.0444 2.31445 15.4907 2.10547C14.96 1.90039 14.3545 1.75781 13.4688 1.71875C12.5767 1.67578 12.2935 1.66602 10.0308 1.66602C7.76807 1.66602 7.48486 1.67578 6.5957 1.71484C5.71045 1.75391 5.10156 1.89648 4.57422 2.10156C4.01416 2.31445 3.5127 2.63867 3.0957 3.06641C2.67236 3.48242 2.34375 3.98828 2.13525 4.54102C1.93018 5.07227 1.78711 5.67773 1.74805 6.5625C1.70557 7.45508 1.6958 7.73828 1.6958 10C1.6958 12.2637 1.70557 12.5469 1.74463 13.4355C1.78369 14.3223 1.92725 14.9297 2.13232 15.457C2.34375 16.0176 2.67236 16.5195 3.0957 16.9355C3.5127 17.3594 4.01709 17.6875 4.5708 17.8965C5.10156 18.1016 5.70703 18.2441 6.59277 18.2832C7.48145 18.3223 7.76465 18.332 10.0273 18.332C12.2905 18.332 12.5737 18.3223 13.4624 18.2832C14.3481 18.2441 14.957 18.1016 15.4844 17.8965C16.6045 17.4629 17.4897 16.5781 17.9229 15.457C18.1279 14.9277 18.2715 14.3223 18.3105 13.4355C18.3496 12.5469 18.3594 12.2637 18.3594 10C18.3594 7.73828 18.356 7.45508 18.3169 6.56641ZM16.8159 13.3711C16.7803 14.1855 16.6436 14.625 16.5293 14.918C16.2495 15.6426 15.6733 16.2188 14.9473 16.5C14.6538 16.6133 14.2114 16.75 13.4004 16.7852C12.5215 16.8262 12.2578 16.834 10.0342 16.834C7.81006 16.834 7.54346 16.8262 6.66748 16.7852C5.85352 16.75 5.41406 16.6133 5.12109 16.5C4.75977 16.3652 4.43066 16.1543 4.16357 15.877C3.88721 15.6074 3.67529 15.2812 3.54199 14.9199C3.42773 14.627 3.29102 14.1855 3.25537 13.375C3.21631 12.4941 3.20654 12.2305 3.20654 10.0078C3.20654 7.7832 3.21631 7.51758 3.25537 6.64062C3.29102 5.82617 3.42773 5.38672 3.54199 5.09375C3.67529 4.73242 3.88721 4.4043 4.16699 4.13672C4.43701 3.86133 4.7627 3.64844 5.12402 3.51562C5.41748 3.40234 5.85986 3.26562 6.6709 3.22852C7.5498 3.18945 7.81348 3.17969 10.0371 3.17969C12.2642 3.17969 12.5278 3.18945 13.4038 3.22852C14.2178 3.26562 14.6572 3.40234 14.9502 3.51562C15.3115 3.64844 15.6406 3.86133 15.9077 4.13672C16.1841 4.4082 16.396 4.73242 16.5293 5.09375C16.6436 5.38672 16.7803 5.83008 16.8159 6.64062C16.855 7.51953 16.8647 7.7832 16.8647 10.0078C16.8647 12.2305 16.855 12.4922 16.8159 13.3711ZM14.4814 6.54883C15.0337 6.54883 15.481 6.10156 15.481 5.55078C15.481 4.99805 15.0337 4.55078 14.4814 4.55078C13.9297 4.55078 13.4819 4.99805 13.4819 5.55078C13.4819 6.10156 13.9297 6.54883 14.4814 6.54883ZM10.0308 5.71875C7.66699 5.71875 5.74951 7.63672 5.74951 10.002C5.74951 12.3652 7.66699 14.2832 10.0308 14.2832C12.3945 14.2832 14.312 12.3652 14.312 10.002C14.312 7.63672 12.3945 5.71875 10.0308 5.71875ZM10.0308 12.7773C8.49756 12.7773 7.25342 11.5352 7.25342 10.002C7.25342 8.4668 8.49756 7.22461 10.0308 7.22461C11.5645 7.22461 12.8081 8.4668 12.8081 10.002C12.8081 11.5352 11.5645 12.7773 10.0308 12.7773Z" fill="#FFFFFF" fill-opacity="1.000000" fill-rule="evenodd"/>
		</g>
	</g>
</svg>
