<svg width="19.996094" height="20.000000" viewBox="0 0 19.9961 20" fill="none" xmlns="http://www.w3.org/2000/svg" xmlns:xlink="http://www.w3.org/1999/xlink">
	<desc>
			Created with Pixso.
	</desc>
	<defs/>
	<path id="Vector" d="M19.9453 5.88086C19.8984 4.81641 19.7266 4.08594 19.4805 3.45312C19.2266 2.78125 18.8359 2.17969 18.3237 1.67969C17.8237 1.17188 17.2183 0.777344 16.5542 0.527344C15.9175 0.28125 15.1904 0.109375 14.1279 0.0625C13.0571 0.0117188 12.7173 0 10.002 0C7.28662 0 6.94678 0.0117188 5.87988 0.0585938C4.81738 0.105469 4.08691 0.277344 3.4541 0.523438C2.78174 0.777344 2.18018 1.16797 1.68018 1.67969C1.17188 2.17969 0.777344 2.78516 0.527344 3.44922C0.28125 4.08594 0.109375 4.8125 0.0625 5.87695C0.0117188 6.94727 0 7.28711 0 10.002C0 12.7168 0.0117188 13.0566 0.0585938 14.123C0.105469 15.1875 0.277344 15.918 0.523438 16.5508C0.777344 17.2227 1.17188 17.8242 1.68018 18.3242C2.18018 18.832 2.78564 19.2266 3.44971 19.4766C4.08691 19.7227 4.81348 19.8945 5.87646 19.9414C6.94287 19.9883 7.28271 20 9.99805 20C12.7134 20 13.0532 19.9883 14.1201 19.9414C15.1826 19.8945 15.9131 19.7227 16.5464 19.4766C17.8901 18.957 18.9531 17.8945 19.4727 16.5508C19.7188 15.9141 19.8906 15.1875 19.9375 14.123C19.9844 13.0566 19.9961 12.7168 19.9961 10.002C19.9961 7.28711 19.9922 6.94727 19.9453 5.88086ZM18.144 14.0449C18.1011 15.0234 17.937 15.5508 17.8003 15.9023C17.4644 16.7734 16.7729 17.4648 15.9014 17.8008C15.5498 17.9375 15.0186 18.1016 14.0459 18.1445C12.9907 18.1914 12.6743 18.2031 10.0059 18.2031C7.3374 18.2031 7.01709 18.1914 5.96582 18.1445C4.98926 18.1016 4.46191 17.9375 4.11035 17.8008C3.67676 17.6406 3.28174 17.3867 2.96143 17.0547C2.62939 16.7305 2.37549 16.3398 2.21533 15.9062C2.07861 15.5547 1.91455 15.0234 1.87158 14.0488C1.82471 12.9941 1.81299 12.6777 1.81299 10.0098C1.81299 7.3418 1.82471 7.02148 1.87158 5.9707C1.91455 4.99414 2.07861 4.46484 2.21533 4.11328C2.37549 3.67969 2.62939 3.28516 2.96533 2.96484C3.28955 2.63281 3.68018 2.37891 4.11426 2.21875C4.46582 2.08203 4.99707 1.91797 5.96973 1.875C7.0249 1.82812 7.34131 1.81641 10.0098 1.81641C12.6821 1.81641 12.9985 1.82812 14.0498 1.875C15.0264 1.91797 15.5537 2.08203 15.9053 2.21875C16.3389 2.37891 16.7339 2.63281 17.0542 2.96484C17.3862 3.28906 17.6401 3.67969 17.8003 4.11328C17.937 4.46484 18.1011 4.99609 18.144 5.9707C18.1909 7.02539 18.2026 7.3418 18.2026 10.0098C18.2026 12.6777 18.1909 12.9902 18.144 14.0449ZM15.3428 5.86133C16.0054 5.86133 16.5425 5.32422 16.5425 4.66016C16.5425 3.99805 16.0054 3.46094 15.3428 3.46094C14.6807 3.46094 14.1436 3.99805 14.1436 4.66016C14.1436 5.32422 14.6807 5.86133 15.3428 5.86133ZM10.002 4.86328C7.16553 4.86328 4.86426 7.16602 4.86426 10.002C4.86426 12.8379 7.16553 15.1406 10.002 15.1406C12.8384 15.1406 15.1396 12.8379 15.1396 10.002C15.1396 7.16602 12.8384 4.86328 10.002 4.86328ZM10.002 13.334C8.16162 13.334 6.66943 11.8418 6.66943 10.002C6.66943 8.16211 8.16162 6.66992 10.002 6.66992C11.8423 6.66992 13.3345 8.16211 13.3345 10.002C13.3345 11.8418 11.8423 13.334 10.002 13.334Z" fill="#FFFFFF" fill-opacity="1.000000" fill-rule="evenodd"/>
</svg>
