<svg width="20.000000" height="20.000000" viewBox="0 0 20 20" fill="none" xmlns="http://www.w3.org/2000/svg" xmlns:xlink="http://www.w3.org/1999/xlink">
	<desc>
			Created with Pixso.
	</desc>
	<defs>
		<clipPath id="clip33_650">
			<rect id="Linked-In" width="20.000000" height="20.000000" fill="white" fill-opacity="0"/>
		</clipPath>
	</defs>
	<g clip-path="url(#clip33_650)">
		<path id="Vector" d="M1.6665 3.66797C1.6665 2.5625 2.56299 1.66602 3.66797 1.66602C4.77197 1.66602 5.66846 2.5625 5.66943 3.66797C5.66943 4.77148 4.77295 5.6875 3.66797 5.6875C2.56299 5.6875 1.6665 4.77148 1.6665 3.66797ZM18.3291 18.332L18.333 18.332L18.333 12.2188C18.333 9.22852 17.6895 6.92578 14.1934 6.92578C12.5132 6.92578 11.3853 7.84766 10.9248 8.72266L10.8765 8.72266L10.8765 7.20508L7.56152 7.20508L7.56152 18.332L11.0132 18.332L11.0132 12.8223C11.0132 11.3711 11.2881 9.96875 13.0845 9.96875C14.8545 9.96875 14.8809 11.625 14.8809 12.916L14.8809 18.332L18.3291 18.332ZM1.94141 7.20508L5.39697 7.20508L5.39697 18.332L1.94141 18.332L1.94141 7.20508Z" fill="#FFFFFF" fill-opacity="1.000000" fill-rule="evenodd"/>
	</g>
</svg>
