<svg width="525.000000" height="620.000000" viewBox="0 0 525 620" fill="none" xmlns="http://www.w3.org/2000/svg" xmlns:xlink="http://www.w3.org/1999/xlink">
	<desc>
			Created with Pixso.
	</desc>
	<defs/>
	<rect id="illustration" width="525.000000" height="620.000000" fill="#FFFFFF" fill-opacity="0"/>
	<path id="Vector" d="M522.288 619.211L357.62 619.672C337.437 619.891 315.996 620 293.759 620C239.633 620 190.159 619.299 152.32 618.139L0 618.139C0 575.955 29.6118 594.484 37.4199 601.932C46.499 610.582 34.8081 564.523 53.3433 564.523C69.2109 564.523 78.29 577.029 78.29 577.029C78.29 577.029 78.7231 552.719 93.7666 552.367C108.81 552.018 118.364 572.803 130.237 589.906C135.139 596.959 141.034 602.566 146.607 606.836C185.117 605.566 236.854 604.777 293.759 604.777C320.717 604.777 346.501 604.953 370.289 605.281C412.556 605.281 451.261 570.436 462.24 561.697C489.365 540.059 476.515 591.637 476.515 591.637C476.515 591.637 497.425 577.84 512.133 577.949C532.903 578.08 522.288 619.211 522.288 619.211Z" fill="#D0F0E4" fill-opacity="1.000000" fill-rule="nonzero"/>
	<path id="Vector (Stroke)" d="M351.7 539.473L352.525 539.842C373.864 549.396 382.86 569.014 386.53 586.129C388.366 594.693 388.876 602.658 388.928 608.482C388.954 611.395 388.865 613.773 388.77 615.426C388.722 616.252 388.673 616.898 388.635 617.338C388.616 617.557 388.601 617.727 388.589 617.84C388.583 617.896 388.579 617.941 388.576 617.971L388.573 618.004L388.572 618.014L388.571 618.016C388.571 618.016 388.571 618.016 387.924 617.943C387.276 617.871 387.276 617.871 387.276 617.871L387.276 617.869L387.277 617.863L387.28 617.832C387.283 617.807 387.287 617.766 387.292 617.711C387.303 617.602 387.318 617.439 387.337 617.225C387.374 616.797 387.422 616.164 387.469 615.35C387.563 613.723 387.65 611.373 387.625 608.494C387.574 602.732 387.068 594.859 385.256 586.406C381.677 569.715 373.029 550.867 352.827 541.422C352.789 541.871 352.739 542.479 352.684 543.223C352.556 544.953 352.396 547.422 352.269 550.373C352.016 556.275 351.897 564.092 352.432 571.771C352.793 576.947 353.449 582.031 354.548 586.412C357.586 587.615 360.225 588.951 362.405 590.303C365.782 592.396 368.138 594.572 369.128 596.408C369.622 597.322 369.845 598.283 369.496 599.127C369.139 599.99 368.287 600.486 367.2 600.703L367.199 600.703C364.399 601.26 362.011 600.684 360.018 599.229C358.047 597.791 356.505 595.525 355.293 592.771C354.579 591.15 353.971 589.338 353.455 587.393C347.546 585.131 340.133 583.385 331.649 583.047C331.742 583.193 331.846 583.357 331.959 583.533C332.582 584.504 333.502 585.895 334.687 587.564C337.057 590.906 340.482 595.363 344.702 599.836C353.172 608.812 364.713 617.699 377.272 617.943L377.247 619.256C364.132 618.998 352.271 609.762 343.757 600.738C339.484 596.211 336.021 591.703 333.626 588.326C332.429 586.637 331.497 585.23 330.864 584.244C330.548 583.752 330.306 583.363 330.143 583.098C330.062 582.967 330 582.863 329.958 582.795C329.937 582.76 329.921 582.734 329.91 582.715L329.898 582.695L329.894 582.688C329.894 582.688 329.894 582.688 330.454 582.352L329.894 582.688L329.291 581.668L330.469 581.695C339.201 581.904 346.882 583.584 353.071 585.85C352.071 581.559 351.471 576.723 351.132 571.863C350.592 564.115 350.712 556.244 350.967 550.316C351.094 547.35 351.255 544.867 351.384 543.125C351.449 542.254 351.506 541.568 351.546 541.1C351.566 540.865 351.583 540.686 351.594 540.564C351.6 540.502 351.604 540.457 351.607 540.426L351.61 540.391L351.611 540.379C351.611 540.377 351.611 540.377 352.26 540.441L351.611 540.377L351.7 539.473ZM354.975 588C355.415 589.525 355.916 590.949 356.484 592.24C357.646 594.881 359.069 596.916 360.782 598.166C362.473 599.4 364.49 599.904 366.946 599.418C367.829 599.24 368.174 598.91 368.293 598.623C368.42 598.316 368.398 597.803 367.983 597.035C367.158 595.504 365.038 593.477 361.722 591.42C359.825 590.244 357.562 589.076 354.975 588Z" fill="#FFCF2D" fill-opacity="1.000000" fill-rule="evenodd"/>
	<path id="Vector (Stroke)" d="M409.491 583.137C408.562 583.236 407.393 583.498 405.952 583.961C393.172 588.07 386.189 596.713 382.391 604.35C380.49 608.17 379.39 611.736 378.765 614.344C378.452 615.648 378.259 616.711 378.144 617.445C378.086 617.812 378.049 618.098 378.025 618.289C378.014 618.385 378.006 618.457 378.001 618.506C377.998 618.529 377.997 618.547 377.996 618.559L377.994 618.57L377.994 618.572L377.994 618.572C377.994 618.572 377.994 618.572 377.345 618.514C376.696 618.453 376.696 618.453 376.696 618.453L376.696 618.451L376.697 618.445L376.699 618.43C376.7 618.414 376.702 618.393 376.705 618.365C376.71 618.312 376.72 618.232 376.732 618.129C376.757 617.924 376.797 617.625 376.857 617.242C376.977 616.477 377.176 615.379 377.498 614.037C378.141 611.355 379.271 607.691 381.226 603.762C385.138 595.898 392.359 586.953 405.556 582.711L405.557 582.711C407.047 582.232 408.307 581.943 409.354 581.832C410.393 581.721 411.27 581.781 411.965 582.047C412.686 582.322 413.192 582.816 413.45 583.494C413.696 584.145 413.69 584.896 413.541 585.682C413.244 587.242 412.321 589.184 411.053 591.293C409.776 593.418 408.111 595.773 406.27 598.176C402.588 602.982 398.176 608.02 394.689 611.848C392.945 613.764 391.43 615.381 390.351 616.518C389.811 617.086 389.38 617.535 389.084 617.844C388.937 617.996 388.822 618.115 388.745 618.195C388.706 618.234 388.676 618.266 388.656 618.285L388.626 618.316C388.626 618.316 388.626 618.316 388.162 617.857C387.697 617.396 387.697 617.396 387.697 617.396L387.726 617.367C387.745 617.348 387.774 617.318 387.812 617.279C387.889 617.199 388.002 617.082 388.149 616.93C388.443 616.625 388.871 616.178 389.408 615.611C390.482 614.48 391.991 612.871 393.729 610.963C397.206 607.145 401.589 602.139 405.238 597.375C407.063 594.994 408.696 592.682 409.938 590.613C411.19 588.531 412.009 586.756 412.261 585.434C412.387 584.775 412.358 584.295 412.232 583.963C412.118 583.66 411.902 583.426 411.501 583.273C411.074 583.109 410.427 583.037 409.491 583.137Z" fill="#FFCF2D" fill-opacity="1.000000" fill-rule="evenodd"/>
	<path id="Vector (Stroke)" d="M129.685 514.943L129.239 515.256C129.685 514.943 129.686 514.943 129.686 514.945L129.687 514.945L129.688 514.949L129.694 514.957C129.699 514.965 129.706 514.975 129.714 514.988C129.731 515.014 129.755 515.051 129.785 515.1C129.845 515.195 129.93 515.34 130.038 515.535C130.253 515.926 130.557 516.521 130.922 517.359C131.652 519.033 132.627 521.672 133.628 525.564C135.568 533.102 137.609 545.346 138.16 564.391C138.637 563.602 139.278 562.549 140.058 561.297C141.851 558.414 144.374 554.473 147.292 550.236C153.115 541.785 160.567 532.082 166.969 527.322L167.887 526.639L167.834 527.787L167.292 527.762C167.834 527.787 167.834 527.787 167.834 527.787L167.833 527.814C167.832 527.834 167.831 527.861 167.829 527.898C167.825 527.971 167.82 528.078 167.812 528.221C167.797 528.504 167.774 528.922 167.742 529.461C167.676 530.537 167.573 532.096 167.42 534.027C167.116 537.889 166.615 543.238 165.832 549.195C164.359 560.393 161.88 573.793 157.793 583.465C157.988 583.344 158.198 583.217 158.422 583.084C159.808 582.268 161.756 581.279 163.994 580.611C168.474 579.273 174.196 579.203 178.797 584.439C181.12 587.082 181.725 590.047 181.325 592.973C180.929 595.875 179.547 598.73 177.916 601.227C176.28 603.73 174.37 605.906 172.873 607.455C172.123 608.23 171.475 608.852 171.013 609.279C170.782 609.492 170.598 609.658 170.47 609.77C170.407 609.826 170.357 609.869 170.323 609.898C170.307 609.914 170.293 609.926 170.285 609.932L170.274 609.941L170.271 609.945C170.271 609.945 170.27 609.945 169.92 609.527C169.716 609.283 169.63 609.182 169.595 609.141L169.57 609.109L169.57 609.109L169.572 609.107L169.58 609.1C169.588 609.094 169.6 609.084 169.615 609.07C169.635 609.053 169.66 609.031 169.692 609.004C169.71 608.986 169.731 608.969 169.753 608.949C169.875 608.842 170.054 608.682 170.278 608.475C170.728 608.059 171.361 607.453 172.094 606.693C173.563 605.174 175.424 603.051 177.008 600.627C178.597 598.195 179.884 595.498 180.249 592.822C180.611 590.172 180.07 587.537 177.984 585.162C173.767 580.363 168.553 580.391 164.302 581.66C162.174 582.295 160.308 583.238 158.971 584.027C158.303 584.42 157.771 584.773 157.406 585.027C157.224 585.154 157.083 585.256 156.99 585.324C156.943 585.359 156.908 585.387 156.885 585.404C156.873 585.412 156.865 585.42 156.859 585.424L156.854 585.428L156.853 585.428L156.853 585.43L155.062 586.832L156.028 584.766C160.506 575.174 163.192 560.939 164.755 549.053C165.536 543.119 166.034 537.787 166.338 533.939C166.49 532.018 166.593 530.465 166.658 529.395C166.668 529.225 166.677 529.066 166.686 528.92C160.655 533.779 153.728 542.814 148.185 550.859C145.278 555.078 142.765 559.004 140.978 561.877C140.085 563.312 139.374 564.484 138.886 565.297C138.642 565.703 138.454 566.02 138.327 566.232C138.263 566.34 138.215 566.422 138.183 566.477L138.146 566.539L138.135 566.559L138.135 566.559C138.135 566.561 138.135 566.561 137.667 566.283L138.135 566.561L137.168 568.217L137.124 566.295C136.657 546.236 134.554 533.521 132.577 525.838C131.588 521.996 130.632 519.412 129.928 517.797C129.617 517.086 129.355 516.561 129.162 516.201C125.969 520.16 123.201 525.875 120.842 532.311C118.367 539.062 116.357 546.562 114.777 553.57C113.197 560.576 112.05 567.08 111.297 571.832C110.92 574.207 110.643 576.145 110.459 577.486C110.368 578.158 110.3 578.682 110.254 579.035C110.232 579.213 110.215 579.348 110.204 579.439C110.198 579.484 110.194 579.518 110.191 579.541L110.188 579.574C110.188 579.574 110.188 579.574 109.648 579.51L110.188 579.574L110.012 581.045L109.196 579.812C102.281 569.371 90.6416 561.662 80.6777 556.555C75.7036 554.006 71.1641 552.113 67.8687 550.857C66.2212 550.23 64.8853 549.762 63.9624 549.451C63.7788 549.389 63.6113 549.334 63.4609 549.285C68.7954 569.68 80.4673 586.166 90.8945 597.611C96.187 603.42 101.152 607.924 104.793 610.975C106.614 612.5 108.103 613.662 109.135 614.441C109.651 614.83 110.053 615.125 110.325 615.32C110.461 615.418 110.565 615.492 110.634 615.541C110.669 615.566 110.695 615.584 110.712 615.596L110.731 615.609L110.736 615.613L110.737 615.613C110.737 615.613 110.737 615.613 110.43 616.064C110.123 616.516 110.123 616.516 110.123 616.514L110.115 616.51L110.094 616.494C110.075 616.482 110.048 616.463 110.012 616.438C109.939 616.387 109.833 616.311 109.693 616.209C109.415 616.01 109.006 615.711 108.483 615.316C107.438 614.525 105.935 613.354 104.099 611.816C100.428 608.74 95.4253 604.203 90.0942 598.35C79.436 586.652 67.4395 569.674 62.1641 548.598L61.9307 547.666L62.8462 547.941L62.6909 548.465C62.8462 547.941 62.8467 547.941 62.8467 547.941L62.853 547.943L62.8721 547.949C62.8887 547.955 62.9131 547.961 62.9453 547.973C63.0093 547.992 63.104 548.021 63.228 548.061C63.4756 548.139 63.8394 548.258 64.3071 548.414C65.2417 548.729 66.5908 549.201 68.2529 549.834C71.5767 551.1 76.1538 553.01 81.1704 555.58C90.8159 560.525 102.15 567.951 109.291 578.027C109.319 577.818 109.35 577.588 109.384 577.338C109.568 575.988 109.847 574.043 110.225 571.66C110.98 566.891 112.132 560.363 113.718 553.328C115.304 546.295 117.326 538.744 119.823 531.932C122.316 525.129 125.3 519.018 128.828 514.898L129.285 514.365L129.685 514.943Z" fill="#FE5244" fill-opacity="1.000000" fill-rule="evenodd"/>
	<path id="Vector (Stroke)" d="M128.717 516.682C128.717 516.68 128.717 516.68 129.26 516.678C129.803 516.676 129.803 516.676 129.803 516.676L129.804 516.928C129.805 517.094 129.806 517.34 129.806 517.662C129.808 518.307 129.81 519.254 129.812 520.463C129.814 522.881 129.812 526.346 129.799 530.541C129.772 538.932 129.695 550.236 129.494 561.896C129.292 573.555 128.968 585.574 128.446 595.391C128.186 600.299 127.875 604.66 127.505 608.154C127.138 611.631 126.707 614.301 126.189 615.787L125.164 615.426C125.634 614.074 126.057 611.525 126.425 608.039C126.792 604.572 127.102 600.23 127.362 595.332C127.883 585.535 128.207 573.531 128.408 561.877C128.609 550.225 128.686 538.924 128.713 530.537C128.727 526.344 128.728 522.879 128.726 520.463C128.724 519.256 128.722 518.309 128.72 517.666C128.72 517.344 128.719 517.098 128.718 516.932L128.717 516.682Z" fill="#FE5244" fill-opacity="1.000000" fill-rule="evenodd"/>
	<path id="Vector (Stroke)" d="M165.568 529.771C165.568 529.771 165.568 529.771 166.075 529.969C166.581 530.168 166.581 530.168 166.58 530.168L166.562 530.217C166.549 530.248 166.53 530.297 166.505 530.361C166.456 530.49 166.382 530.68 166.285 530.928C166.091 531.426 165.804 532.156 165.435 533.094C164.696 534.969 163.625 537.666 162.293 540.961C159.631 547.551 155.932 556.529 151.781 566.086C147.63 575.643 143.027 585.779 138.557 594.686C134.093 603.582 129.745 611.283 126.103 615.943L125.25 615.268C128.819 610.699 133.126 603.084 137.588 594.193C142.045 585.312 146.64 575.195 150.786 565.648C154.932 556.104 158.628 547.133 161.287 540.549C162.617 537.258 163.688 534.562 164.425 532.689C164.794 531.754 165.08 531.023 165.274 530.527C165.371 530.279 165.444 530.09 165.494 529.963C165.519 529.9 165.537 529.852 165.55 529.818L165.568 529.771Z" fill="#FE5244" fill-opacity="1.000000" fill-rule="evenodd"/>
	<path id="Vector (Stroke)" d="M148.868 591.209C147.914 592.418 147.571 593.426 147.806 594.193C147.944 594.633 148.11 594.764 148.209 594.805C148.317 594.85 148.515 594.859 148.857 594.701C149.553 594.379 150.461 593.533 151.419 592.367C152.361 591.223 153.297 589.834 154.057 588.516C154.627 587.525 155.086 586.596 155.373 585.85C154.506 586.4 153.624 586.998 152.779 587.625C151.209 588.787 149.801 590.025 148.868 591.209ZM156.213 585.328C158.247 584.092 160.089 583.166 161.008 582.822L160.629 581.797C159.083 582.377 155.336 584.373 152.135 586.744C150.534 587.932 149.037 589.236 148.018 590.529C147.021 591.793 146.364 593.197 146.769 594.518L146.77 594.52C146.958 595.123 147.282 595.602 147.795 595.814C148.301 596.025 148.838 595.914 149.312 595.693C150.246 595.262 151.287 594.244 152.256 593.064C153.242 591.865 154.212 590.426 154.996 589.064C155.775 587.713 156.394 586.396 156.651 585.449L156.213 585.328Z" fill="#FE5244" fill-opacity="1.000000" fill-rule="evenodd"/>
	<path id="Vector (Stroke)" d="M110.692 591.115C110.935 591.592 111.173 591.723 111.385 591.73L111.386 591.73C112.075 591.758 112.524 591.643 112.813 591.469C113.089 591.303 113.266 591.059 113.363 590.717C113.574 589.975 113.395 588.838 112.92 587.451C112.249 585.492 111.091 583.309 110.155 581.584C110.142 581.766 110.129 581.949 110.117 582.133C109.951 584.646 109.91 587.129 110.146 588.98C110.265 589.91 110.449 590.635 110.692 591.115ZM109.216 579.768L109.188 579.783C109.196 579.797 109.203 579.812 109.211 579.826C109.144 580.561 109.083 581.311 109.034 582.061C108.866 584.59 108.819 587.16 109.069 589.119C109.193 590.094 109.397 590.965 109.725 591.611C110.055 592.262 110.572 592.793 111.343 592.822C112.158 592.855 112.839 592.727 113.369 592.408C113.913 592.082 114.244 591.592 114.407 591.018C114.718 589.924 114.427 588.498 113.947 587.096C113.189 584.883 111.829 582.381 110.86 580.6C110.662 580.234 110.479 579.9 110.322 579.604C110.474 577.998 110.655 576.486 110.818 575.246C110.942 574.307 111.055 573.525 111.137 572.979C111.178 572.705 111.212 572.49 111.235 572.344C111.246 572.271 111.255 572.215 111.261 572.178L111.268 572.135L111.271 572.121C111.271 572.121 111.271 572.121 110.734 572.033C110.199 571.943 110.199 571.943 110.199 571.943L110.196 571.959L110.189 572.002C110.183 572.041 110.174 572.098 110.162 572.172C110.139 572.32 110.105 572.537 110.063 572.814C109.98 573.367 109.866 574.156 109.742 575.102C109.568 576.42 109.375 578.047 109.216 579.768Z" fill="#FE5244" fill-opacity="1.000000" fill-rule="evenodd"/>
	<path id="Vector" d="M284.341 544.07C269.572 551.35 270.962 565.32 270.832 574.699C270.679 584.691 251.74 589.916 251.74 589.916C256.779 573.934 253.195 557.473 253.195 557.473L284.341 544.07Z" fill="#A0505A" fill-opacity="1.000000" fill-rule="nonzero"/>
	<path id="Vector" d="M300 580.867L296.634 582.703L289.575 566.459C289.206 565.607 288.381 565.104 287.534 565.104C287.251 565.104 286.947 565.17 286.665 565.279C285.948 565.584 285.427 566.262 285.34 567.049L282.234 590.596L241.379 612.982C240.163 610.053 247.743 602.707 251.762 589.918C251.762 589.918 270.723 584.693 270.853 574.701C270.983 565.322 269.615 551.33 284.362 544.072L287.468 542.738C304.41 550.588 300 580.867 300 580.867Z" fill="#FFCF2D" fill-opacity="1.000000" fill-rule="nonzero"/>
	<path id="Vector" d="M287.448 427.391L287.448 542.738L253.652 557.494L228.327 441.689C239.665 442.127 258.561 439.721 287.448 427.391Z" fill="#FFFFFF" fill-opacity="1.000000" fill-rule="nonzero"/>
	<path id="Vector (Stroke)" d="M287.991 426.566L287.991 543.098L253.264 558.262L227.646 441.117L228.348 441.145C239.586 441.578 258.402 439.197 287.236 426.889L287.991 426.566ZM229.008 442.26L254.041 556.73L286.905 542.381L286.905 428.217C258.97 440.045 240.411 442.572 229.008 442.26Z" fill="#9A3B82" fill-opacity="1.000000" fill-rule="evenodd"/>
	<path id="Vector (Stroke)" d="M268.727 550.664L262.059 437.568L263.143 437.504L269.811 550.6L268.727 550.664Z" fill="#9A3B82" fill-opacity="1.000000" fill-rule="evenodd"/>
	<path id="Vector" d="M287.448 427.391L287.448 457.582L229.935 449.209L228.327 441.689C239.665 442.127 258.561 439.721 287.448 427.391Z" fill="#9A3B82" fill-opacity="1.000000" fill-rule="nonzero"/>
	<path id="Vector" d="M457.774 349.123L435.924 353.758C435.186 353.912 434.447 353.67 433.926 353.125C433.557 352.709 433.361 352.205 433.361 351.682C433.361 351.113 433.579 350.545 434.035 350.129L446.197 338.65L443.504 336.225C443.504 336.225 415.269 341.799 413.662 359.529L415.812 361.891C426.911 372.865 438.878 367.203 447.24 364.361C455.233 361.65 464.768 374.135 466.657 376.713C466.679 376.713 466.722 376.713 466.744 376.713C479.341 376.299 488.268 380.803 490.462 378.77L457.774 349.123Z" fill="#FFCF2D" fill-opacity="1.000000" fill-rule="nonzero"/>
	<path id="Vector" d="M415.833 361.891C426.932 372.865 438.899 367.203 447.262 364.361C456.167 361.344 466.788 376.713 466.788 376.713C451.019 377.217 437.575 385.633 437.575 385.633L415.833 361.891Z" fill="#A0505A" fill-opacity="1.000000" fill-rule="nonzero"/>
	<path id="Vector" d="M280.911 428.375C280.911 428.375 286.406 465.736 328.564 465.037C370.721 464.338 437.118 385.414 437.118 385.414L413.77 359.66L280.911 428.375Z" fill="#FFFFFF" fill-opacity="1.000000" fill-rule="nonzero"/>
	<path id="Vector (Stroke)" d="M413.891 358.984L437.841 385.402L437.532 385.77L437.118 385.416C437.532 385.77 437.532 385.77 437.531 385.77L437.52 385.783L437.483 385.826C437.451 385.865 437.402 385.922 437.339 385.998C437.211 386.146 437.021 386.369 436.772 386.66C436.275 387.24 435.54 388.09 434.589 389.17C432.688 391.334 429.927 394.422 426.481 398.131C419.591 405.549 409.962 415.449 399.013 425.371C388.066 435.293 375.787 445.246 363.594 452.77C351.416 460.281 339.259 465.408 328.573 465.586C307.301 465.939 295.226 456.676 288.488 447.289C285.127 442.607 283.101 437.906 281.914 434.377C281.32 432.611 280.937 431.137 280.7 430.102C280.582 429.584 280.501 429.176 280.449 428.895C280.423 428.754 280.405 428.646 280.393 428.572C280.386 428.535 280.382 428.508 280.379 428.488L280.375 428.465L280.375 428.459L280.374 428.457C280.374 428.455 280.374 428.455 280.911 428.375L280.374 428.455L280.317 428.068L413.891 358.984ZM281.514 428.678C281.515 428.684 281.516 428.689 281.517 428.695C281.566 428.961 281.644 429.355 281.759 429.857C281.988 430.861 282.362 432.301 282.943 434.027C284.104 437.482 286.086 442.078 289.368 446.65C295.917 455.771 307.668 464.84 328.555 464.492C338.947 464.32 350.899 459.318 363.027 451.836C375.141 444.363 387.365 434.457 398.287 424.559C409.206 414.662 418.812 404.787 425.688 397.385C429.126 393.684 431.881 390.602 433.776 388.445C434.723 387.367 435.456 386.521 435.951 385.945C436.13 385.736 436.278 385.564 436.394 385.428L413.648 360.338L281.514 428.678Z" fill="#9A3B82" fill-opacity="1.000000" fill-rule="evenodd"/>
	<path id="Vector (Stroke)" d="M357.488 430.73C348.991 434.857 340.715 437.434 333.177 437.557C323.096 437.723 316.315 435.471 311.871 431.857C307.421 428.242 305.386 423.322 304.678 418.307L305.753 418.152C306.435 422.977 308.374 427.611 312.553 431.008C316.736 434.408 323.237 436.627 333.16 436.463L333.16 436.463C340.478 436.346 348.592 433.836 357.017 429.746C365.436 425.658 374.133 420.006 382.608 413.639C399.56 400.9 415.582 385.332 426.671 373.775L427.453 374.535C416.345 386.109 400.276 401.727 383.258 414.514C374.749 420.908 365.991 426.604 357.488 430.73Z" fill="#9A3B82" fill-opacity="1.000000" fill-rule="evenodd"/>
	<path id="Vector" d="M464.918 283.447C461.074 281.982 451.93 287.012 445.045 295.756C437.639 305.137 434.641 315.105 437.899 317.707L333.58 261.869C328.455 259.137 322.547 263.816 324.002 269.457L355.582 389.875C248.613 459.748 214.318 438.803 214.318 438.803L214.318 43.0918C214.318 43.1133 214.318 43.1133 214.34 43.1348C215.252 45.4746 225.048 43.834 236.233 39.4395C246.528 35.418 254.391 30.4766 254.891 27.8965L254.912 27.875L254.912 152.557C254.912 160.385 259.104 167.576 265.88 171.402L464.918 283.447Z" fill="#FE5244" fill-opacity="1.000000" fill-rule="nonzero"/>
	<path id="Vector" d="M464.918 283.447C461.074 281.982 451.93 287.012 445.045 295.756C437.639 305.137 434.641 315.105 437.899 317.707L333.58 261.869C328.455 259.137 322.547 263.816 324.002 269.457L355.582 390.355C328.389 408.131 305.888 419.543 287.448 427.412C258.561 439.721 239.665 442.148 228.328 441.711C218.445 441.34 214.318 438.803 214.318 438.803L214.318 43.0918C214.318 43.1133 214.318 43.1133 214.34 43.1348C215.252 45.4746 225.048 43.834 236.233 39.4395C246.528 35.418 254.391 30.4766 254.891 27.8965L254.912 27.875L254.912 152.557C254.912 160.385 259.104 167.576 265.88 171.402L464.918 283.447Z" fill="#FE5244" fill-opacity="1.000000" fill-rule="nonzero"/>
	<path id="Vector (Stroke)" d="M314.719 251.852C314.89 251.533 315.286 251.414 315.602 251.588L438.208 318.531C438.525 318.703 438.643 319.102 438.471 319.42C438.299 319.738 437.904 319.855 437.587 319.684L314.98 252.74C314.665 252.568 314.547 252.17 314.719 251.852Z" fill="#FFFFFF" fill-opacity="1.000000" fill-rule="evenodd"/>
	<path id="Vector" d="M268.792 173.021L255.043 253.453L325.219 204.811L268.792 173.021Z" fill="#FFCF2D" fill-opacity="1.000000" fill-rule="nonzero"/>
	<path id="Vector (Stroke)" d="M268.902 172.375C269.257 172.436 269.495 172.775 269.434 173.133L255.948 252.031L324.849 204.27C325.146 204.064 325.551 204.139 325.755 204.438C325.959 204.736 325.885 205.145 325.588 205.35L254.139 254.877L268.149 172.91C268.21 172.553 268.547 172.312 268.902 172.375Z" fill="#FFFFFF" fill-opacity="1.000000" fill-rule="evenodd"/>
	<path id="Vector" d="M268.226 17.7734L177.634 36.4648C174.289 37.166 170.836 34.1699 169.945 29.7754C169.055 25.3809 171.053 21.2715 174.398 20.5723L264.99 1.87891L268.226 17.7734Z" fill="#FFFFFF" fill-opacity="1.000000" fill-rule="nonzero"/>
	<path id="Vector (Stroke)" d="M265.413 1.23438L268.867 18.1992L177.745 37.002C177.744 37.002 177.744 37.002 177.743 37.002L265.413 1.23438ZM177.743 37.002C175.871 37.3926 174.005 36.7402 172.515 35.4453C171.023 34.1484 169.88 32.1914 169.413 29.8848C168.491 25.334 170.53 20.8223 174.288 20.0371L174.289 20.0371L265.413 1.23438L177.743 37.002ZM264.567 2.52539L174.508 21.1074C174.508 21.1074 174.508 21.1074 174.508 21.1074C171.576 21.7207 169.619 25.4297 170.478 29.666C170.901 31.7559 171.93 33.4922 173.224 34.6172C174.519 35.7422 176.051 36.2383 177.523 35.9316L177.525 35.9316L267.585 17.3477L264.567 2.52539Z" fill="#3FB1B5" fill-opacity="1.000000" fill-rule="evenodd"/>
	<path id="Vector" d="M268.194 17.7871C271.543 17.0957 273.534 12.9785 272.64 8.58984C271.747 4.20117 268.307 1.20508 264.958 1.89453C261.609 2.58594 259.619 6.70312 260.513 11.0918C261.406 15.4805 264.846 18.4766 268.194 17.7871Z" fill="#FFFFFF" fill-opacity="1.000000" fill-rule="nonzero"/>
	<path id="Vector (Stroke)" d="M261.633 5.34766C260.885 6.89453 260.62 8.89844 261.044 10.9844C261.469 13.0703 262.496 14.8066 263.788 15.9316C265.08 17.0586 266.61 17.5566 268.085 17.252C269.56 16.9492 270.772 15.8828 271.52 14.3379C272.268 12.791 272.533 10.7871 272.108 8.70117C271.683 6.61523 270.657 4.87891 269.364 3.75195C268.073 2.62695 266.542 2.12891 265.067 2.43164C263.592 2.73633 262.38 3.80273 261.633 5.34766ZM260.656 4.86914C261.518 3.08789 262.975 1.74805 264.849 1.36133C266.723 0.974609 268.586 1.62891 270.075 2.92578C271.563 4.22266 272.703 6.17969 273.172 8.48242C273.641 10.7832 273.357 13.0332 272.497 14.8164C271.635 16.5977 270.177 17.9375 268.303 18.3242C266.429 18.7109 264.566 18.0566 263.077 16.7598C261.589 15.4629 260.449 13.5059 259.98 11.2031C259.512 8.90234 259.795 6.65234 260.656 4.86914Z" fill="#3FB1B5" fill-opacity="1.000000" fill-rule="evenodd"/>
	<path id="Vector" d="M216.534 25.7324C216.534 25.7324 187.235 58.877 190.428 66.1797C194.598 70.3535 197.986 72.1914 197.486 73.7441C196.943 75.4258 189.928 85.5918 189.928 85.5918L189.233 78.0508L182.521 80.2793C182.521 80.2793 189.602 69.873 190.058 66.6816C187.148 64.4512 181.218 59.8164 181.414 56.582C181.631 53.1484 192.013 40.9492 199.55 32.5332L188.19 36.3145L185.953 25.7539L206.392 21.9727L216.534 25.7324Z" fill="#FE5244" fill-opacity="1.000000" fill-rule="nonzero"/>
	<path id="Vector" d="M212.559 27.1758C215.966 27.1758 218.727 24.3965 218.727 20.9668C218.727 17.5371 215.966 14.7578 212.559 14.7578C209.152 14.7578 206.391 17.5371 206.391 20.9668C206.391 24.3965 209.152 27.1758 212.559 27.1758Z" fill="#FFFFFF" fill-opacity="1.000000" fill-rule="nonzero"/>
	<path id="Vector (Stroke)" d="M212.56 15.3047C209.453 15.3047 206.934 17.8398 206.934 20.9668C206.934 24.0938 209.453 26.6289 212.56 26.6289C215.667 26.6289 218.185 24.0938 218.185 20.9668C218.185 17.8398 215.667 15.3047 212.56 15.3047ZM205.848 20.9668C205.848 17.2363 208.853 14.2109 212.56 14.2109C216.266 14.2109 219.271 17.2363 219.271 20.9668C219.271 24.6973 216.266 27.7227 212.56 27.7227C208.853 27.7227 205.848 24.6973 205.848 20.9668Z" fill="#FE5244" fill-opacity="1.000000" fill-rule="evenodd"/>
	<path id="Vector" d="M254.892 27.8945C254.392 30.4746 246.53 35.416 236.235 39.4395C225.049 43.8105 215.253 45.4727 214.341 43.1328C214.341 43.1113 214.341 43.1113 214.319 43.0898C213.538 40.7285 221.834 35.3281 232.955 30.9785C244.141 26.6055 253.936 24.9434 254.848 27.2832C254.914 27.459 254.935 27.6543 254.892 27.8945Z" fill="#9A3B82" fill-opacity="1.000000" fill-rule="nonzero"/>
	<path id="Vector" d="M247.353 9.5332L246.159 26.8926L245.594 35.2012C242.879 36.6426 239.686 38.0859 236.233 39.4414C230.369 41.7363 224.895 43.2676 220.877 43.9023L220.877 28.0293L237.362 24.6191C237.362 24.6191 238.274 18.6934 240.012 13.7305C241.728 8.74609 247.353 9.5332 247.353 9.5332Z" fill="#A0505A" fill-opacity="1.000000" fill-rule="nonzero"/>
	<path id="Vector (Stroke)" d="M237.921 23.4707C238.154 23.5293 238.297 23.7656 238.24 24C238.199 24.166 238.101 24.2988 238.016 24.3926C237.925 24.4922 237.813 24.5879 237.693 24.6777C237.455 24.8613 237.138 25.0625 236.787 25.2793C236.685 25.3418 236.58 25.4062 236.471 25.4727C235.817 25.873 235.048 26.3457 234.283 26.9121C232.486 28.2461 230.846 30.0195 230.846 32.4219C230.846 32.6641 230.651 32.8594 230.412 32.8594C230.171 32.8594 229.977 32.6641 229.977 32.4219C229.977 29.5801 231.92 27.5801 233.767 26.209C234.565 25.6152 235.371 25.123 236.024 24.7227C236.131 24.6562 236.234 24.5938 236.333 24.5332C236.687 24.3145 236.969 24.1348 237.168 23.9824C237.268 23.9062 237.334 23.8457 237.375 23.8008C237.39 23.7852 237.398 23.7734 237.403 23.7676C237.47 23.5469 237.696 23.416 237.921 23.4707Z" fill="#73325A" fill-opacity="1.000000" fill-rule="evenodd"/>
	<path id="Vector" d="M246.159 26.8906L245.594 35.1992C242.879 36.6406 239.687 38.084 236.233 39.4395C230.369 41.7344 224.895 43.2656 220.877 43.9004L220.877 36.7285C224.091 34.8262 228.283 32.8145 232.953 30.9785C237.818 29.0547 242.423 27.6562 246.159 26.8906Z" fill="#73325A" fill-opacity="1.000000" fill-rule="nonzero"/>
	<path id="Vector" d="M235.365 18.2109L216.969 22.4531C215.991 22.6719 215.079 21.8848 215.079 20.791L215.079 9.55273C215.079 8.04492 215.991 6.73242 217.316 6.29688L235.496 0.328125C236.646 -0.0449219 237.798 0.873047 237.798 2.16406L237.798 14.9746C237.776 16.5273 236.777 17.8828 235.365 18.2109Z" fill="#A0505A" fill-opacity="1.000000" fill-rule="nonzero"/>
	<path id="Vector (Stroke)" d="M222.359 5.07617C222.429 5.30859 222.299 5.55273 222.069 5.62109C220.885 5.98047 220.075 7.07812 220.075 8.33008L220.075 19.1074C220.075 19.8789 220.775 20.4355 221.503 20.2754C221.738 20.2246 221.97 20.375 222.021 20.6113C222.071 20.8457 221.923 21.0801 221.688 21.1309C220.418 21.4082 219.207 20.4355 219.207 19.1074L219.207 8.33008C219.207 6.69336 220.266 5.25586 221.818 4.78516C222.048 4.71484 222.29 4.8457 222.359 5.07617Z" fill="#73325A" fill-opacity="1.000000" fill-rule="evenodd"/>
	<path id="Vector (Stroke)" d="M227.658 3.45898C227.728 3.69141 227.598 3.93555 227.368 4.00391C226.193 4.36133 225.375 5.49414 225.375 6.79883L225.375 17.9062C225.375 18.7109 226.086 19.2754 226.803 19.1191C227.037 19.0664 227.269 19.2168 227.319 19.4531C227.37 19.6895 227.222 19.9219 226.987 19.9727C225.706 20.2539 224.506 19.2441 224.506 17.9062L224.506 6.79883C224.506 5.13086 225.555 3.64062 227.117 3.16797C227.347 3.09766 227.589 3.22852 227.658 3.45898Z" fill="#73325A" fill-opacity="1.000000" fill-rule="evenodd"/>
	<path id="Vector (Stroke)" d="M233.586 1.63867C233.658 1.86914 233.532 2.11523 233.303 2.1875C232.131 2.5625 231.304 3.73828 231.304 5.09375L231.304 16.5938C231.304 17.4336 232.027 18.0039 232.732 17.8496C232.966 17.7988 233.198 17.9492 233.249 18.1855C233.3 18.4199 233.151 18.6543 232.917 18.7051C231.623 18.9883 230.435 17.9414 230.435 16.5938L230.435 5.09375C230.435 3.39062 231.476 1.85547 233.041 1.35547C233.269 1.28125 233.513 1.4082 233.586 1.63867Z" fill="#73325A" fill-opacity="1.000000" fill-rule="evenodd"/>
	<path id="Vector" d="M456.839 305.18C449.432 314.58 441.135 320.285 437.877 317.684C434.62 315.082 437.617 305.135 445.023 295.734C451.93 286.99 461.052 281.961 464.896 283.426L465.657 283.863C468.937 286.486 464.245 295.801 456.839 305.18Z" fill="#9A3B82" fill-opacity="1.000000" fill-rule="nonzero"/>
	<path id="Vector" d="M490.353 320.986L485.422 323.609C483.467 324.66 481.035 323.916 479.992 321.949L474.801 312.242L466.939 309.531C467.808 309.859 471.196 311.607 470.131 317.969L451.67 311.039L445.328 308.656L439.312 304.787C440.723 301.9 442.656 298.797 445.067 295.758C447.087 293.199 449.281 290.969 451.475 289.133L457.751 293.549L464.18 294.248L474.627 295.363C476.3 295.539 477.907 296.107 479.319 297.004L487.659 302.973C488.875 303.846 489.679 305.158 489.875 306.645L491.569 318.582C491.721 319.566 491.221 320.527 490.353 320.986Z" fill="#A0505A" fill-opacity="1.000000" fill-rule="nonzero"/>
	<path id="Vector (Stroke)" d="M477.858 301.295C477.998 301.098 478.269 301.053 478.464 301.191L485.696 306.373C485.696 306.373 485.696 306.373 485.696 306.373C486.838 307.188 487.595 308.453 487.807 309.855C487.807 309.855 487.807 309.855 487.807 309.855L489.285 319.502L489.286 319.508C489.417 320.535 488.919 321.547 487.989 322.029C487.776 322.139 487.514 322.055 487.404 321.84C487.294 321.625 487.378 321.361 487.592 321.252C488.181 320.947 488.509 320.301 488.425 319.625L486.948 309.988C486.77 308.811 486.137 307.76 485.194 307.086L477.96 301.904C477.765 301.766 477.719 301.492 477.858 301.295Z" fill="#73325A" fill-opacity="1.000000" fill-rule="evenodd"/>
	<path id="Vector (Stroke)" d="M473.382 303.023C473.521 302.826 473.792 302.781 473.988 302.92L481.219 308.102C481.219 308.102 481.22 308.102 481.22 308.102C482.362 308.916 483.118 310.182 483.331 311.584L484.809 321.23L484.809 321.236C484.94 322.264 484.442 323.275 483.513 323.758C483.299 323.867 483.038 323.783 482.928 323.568C482.818 323.354 482.902 323.09 483.115 322.98C483.704 322.676 484.032 322.029 483.948 321.354L482.472 311.717C482.293 310.539 481.66 309.488 480.717 308.814L480.716 308.814L473.484 303.633C473.289 303.494 473.243 303.221 473.382 303.023Z" fill="#73325A" fill-opacity="1.000000" fill-rule="evenodd"/>
	<path id="Vector (Stroke)" d="M461.271 307.574C461.348 307.346 461.594 307.223 461.821 307.301L467.077 309.094C467.305 309.17 467.426 309.418 467.349 309.648C467.272 309.877 467.026 309.998 466.798 309.922L461.542 308.129C461.315 308.051 461.194 307.803 461.271 307.574Z" fill="#73325A" fill-opacity="1.000000" fill-rule="evenodd"/>
	<path id="Vector" d="M464.18 294.248C462.421 297.594 459.858 301.398 456.861 305.201C455.145 307.367 453.407 309.334 451.67 311.039L445.328 308.656L439.312 304.787C440.723 301.9 442.656 298.797 445.067 295.758C447.087 293.199 449.281 290.969 451.475 289.133L457.751 293.549L464.18 294.248Z" fill="#73325A" fill-opacity="1.000000" fill-rule="nonzero"/>
	<path id="Vector" d="M274.523 114.646L320.981 135.395L337.554 184.191L303.888 159.967L288.185 140.662L274.523 114.646Z" fill="#FE5244" fill-opacity="1.000000" fill-rule="nonzero"/>
	<path id="Vector" d="M288.186 140.662C288.186 140.662 303.39 143.287 309.515 160.34L312.751 157.061C312.751 157.061 306.865 140.467 291.313 136.203L288.186 140.662Z" fill="#9A3B82" fill-opacity="1.000000" fill-rule="nonzero"/>
	<path id="Vector" d="M378.798 161.848C373.585 158.875 368.764 157.236 367.222 157.826C367.33 157.564 367.396 157.258 367.374 156.951C367.287 155.99 366.505 155.268 365.571 155.268C365.527 155.268 365.484 155.268 365.419 155.268C364.42 155.355 363.681 156.23 363.747 157.236C363.747 157.301 363.768 157.367 363.768 157.41L358.251 160.975C357.013 161.783 355.493 161.826 354.19 161.105C352.887 160.385 352.126 159.072 352.126 157.586L352.126 149.605C352.126 146.129 350.411 142.916 347.522 140.992C344.633 139.068 341.006 138.762 337.835 140.117L327.323 144.84L323.326 133.055L276.629 112.221C276.347 112.09 276 112.221 275.869 112.527C275.739 112.811 275.869 113.16 276.173 113.291L322.393 133.93L338.877 182.486C338.964 182.727 339.182 182.881 339.42 182.881C339.486 182.881 339.551 182.859 339.616 182.859C339.92 182.75 340.072 182.422 339.985 182.115L327.714 145.955L338.313 141.188C341.136 139.965 344.351 140.248 346.892 141.953C349.455 143.658 350.975 146.502 350.975 149.605L350.975 157.586C350.975 159.51 351.975 161.215 353.647 162.133C354.429 162.57 355.276 162.789 356.123 162.789C357.079 162.789 358.034 162.504 358.881 161.957L364.354 158.438C364.68 158.744 365.115 158.92 365.571 158.92C365.614 158.92 365.68 158.92 365.723 158.92C366.114 158.896 366.461 158.744 366.722 158.504C366.722 160.057 370.675 163.531 376.105 166.637C377.278 167.314 378.451 167.926 379.558 168.451C380.231 167.883 380.796 167.205 381.252 166.396C381.708 165.609 381.991 164.756 382.121 163.881C381.079 163.227 379.971 162.525 378.798 161.848ZM365.614 158C365.115 158.045 364.702 157.674 364.659 157.191C364.615 156.711 364.984 156.273 365.462 156.23C365.94 156.186 366.375 156.559 366.418 157.039C366.461 157.52 366.092 157.957 365.614 158Z" fill="#FFCF2D" fill-opacity="1.000000" fill-rule="nonzero"/>
	<path id="Vector" d="M285.167 169.412L277.131 214.406L304.519 193.154L304.519 165.105L285.167 169.412Z" fill="#A0505A" fill-opacity="1.000000" fill-rule="nonzero"/>
	<path id="Vector" d="M285.167 169.412L284.167 175.053L296.287 199.539L304.519 193.154L304.519 165.105L285.167 169.412Z" fill="#73325A" fill-opacity="1.000000" fill-rule="nonzero"/>
	<path id="Vector" d="M288.641 141.123C288.641 141.123 274.936 137.689 270.657 145.691C266.378 153.693 278.888 155.902 279.41 153.104C279.648 151.879 256.887 151.9 260.709 169.238C264.684 187.297 282.603 181.088 282.603 181.088L284.688 169.412L288.641 141.123Z" fill="#FFFFFF" fill-opacity="1.000000" fill-rule="nonzero"/>
	<path id="Vector (Stroke)" d="M288.746 140.697C288.746 140.697 288.746 140.697 288.641 141.123L288.746 140.697L289.125 140.793L285.117 169.482L282.985 181.416L282.745 181.5L282.603 181.088C282.745 181.5 282.744 181.5 282.744 181.5L282.743 181.502L282.74 181.502L282.729 181.506C282.719 181.51 282.705 181.514 282.687 181.52C282.65 181.531 282.598 181.549 282.529 181.57C282.392 181.613 282.192 181.672 281.938 181.74C281.429 181.879 280.701 182.053 279.814 182.205C278.045 182.512 275.633 182.729 273.086 182.367C270.538 182.006 267.84 181.064 265.522 179.037C263.203 177.01 261.296 173.924 260.286 169.332C259.309 164.9 260.023 161.523 261.69 158.988C263.35 156.467 265.918 154.832 268.56 153.803C269.525 153.426 270.504 153.129 271.46 152.898C270.738 152.34 270.131 151.645 269.751 150.799C269.104 149.359 269.156 147.576 270.275 145.484C272.53 141.268 277.241 140.113 281.238 139.969C283.252 139.896 285.126 140.078 286.495 140.277C287.18 140.379 287.74 140.482 288.13 140.562C288.325 140.602 288.478 140.635 288.583 140.66C288.635 140.672 288.675 140.682 288.702 140.688C288.716 140.691 288.727 140.693 288.734 140.695L288.742 140.697L288.745 140.697L288.746 140.697ZM272.489 153.564C271.312 153.805 270.08 154.146 268.873 154.617C266.332 155.607 263.941 157.152 262.415 159.473C260.897 161.779 260.2 164.906 261.134 169.143C262.111 173.582 263.935 176.49 266.092 178.377C268.253 180.266 270.78 181.158 273.208 181.502C275.637 181.846 277.954 181.639 279.668 181.344C280.524 181.197 281.226 181.027 281.713 180.896C281.925 180.838 282.097 180.789 282.222 180.75L284.259 169.344L288.155 141.461C288.096 141.447 288.03 141.434 287.958 141.418C287.581 141.342 287.037 141.24 286.371 141.145C285.036 140.949 283.216 140.773 281.269 140.844C277.345 140.984 273.063 142.113 271.04 145.898C270.02 147.807 270.031 149.301 270.542 150.439C270.953 151.352 271.711 152.092 272.637 152.645C273.867 152.41 275.027 152.283 276.03 152.232C277.068 152.182 277.951 152.213 278.578 152.301C278.887 152.344 279.16 152.404 279.362 152.486C279.46 152.527 279.576 152.588 279.67 152.68C279.771 152.779 279.88 152.957 279.837 153.186C279.738 153.715 279.36 154.078 278.902 154.309C278.447 154.535 277.868 154.654 277.244 154.688C275.992 154.752 274.444 154.475 273.056 153.846C272.864 153.76 272.675 153.666 272.489 153.564ZM274.033 153.301C274.761 153.199 275.448 153.137 276.073 153.105C277.076 153.057 277.902 153.09 278.459 153.166C278.635 153.191 278.775 153.219 278.88 153.248C278.806 153.344 278.69 153.438 278.516 153.525C278.204 153.68 277.753 153.785 277.199 153.814C276.27 153.863 275.127 153.695 274.033 153.301Z" fill="#9A3B82" fill-opacity="1.000000" fill-rule="evenodd"/>
	<path id="Vector" d="M304.3 167.008C304.3 167.008 283.841 193.855 301.825 205.268C316.246 214.406 319.96 201.529 316.094 199.758C311.902 197.834 302.281 234.127 331.906 234.018C361.597 233.908 352.518 196.588 337.553 184.213C330.407 178.311 306.56 161.805 306.56 161.805L304.3 167.008Z" fill="#FFFFFF" fill-opacity="1.000000" fill-rule="nonzero"/>
	<path id="Vector (Stroke)" d="M306.805 161.445L306.559 161.805C306.805 161.445 306.805 161.445 306.806 161.445L306.874 161.492C306.919 161.523 306.987 161.57 307.075 161.631C307.251 161.754 307.511 161.934 307.845 162.166C308.511 162.629 309.471 163.297 310.645 164.117C312.993 165.758 316.198 168.006 319.626 170.438C326.478 175.301 334.241 180.912 337.829 183.877C345.414 190.148 351.476 202.691 351.909 213.697C352.126 219.209 350.934 224.393 347.751 228.211C344.559 232.039 339.424 234.426 331.907 234.455C324.408 234.482 319.331 232.203 316.034 228.742C312.746 225.291 311.278 220.719 310.886 216.246C310.665 213.725 310.784 211.223 311.117 208.949C308.631 209.006 305.465 208.092 301.593 205.637L301.593 205.637C296.985 202.713 294.823 198.781 294.195 194.539C293.569 190.318 294.464 185.814 295.909 181.713C297.356 177.605 299.368 173.863 301.014 171.152C301.838 169.797 302.572 168.697 303.1 167.934C303.364 167.553 303.578 167.256 303.725 167.053C303.798 166.953 303.856 166.875 303.895 166.822C303.906 166.809 303.915 166.797 303.923 166.785L306.372 161.145L306.805 161.445ZM312.005 208.883C311.66 211.143 311.53 213.646 311.751 216.168C312.132 220.516 313.552 224.875 316.661 228.137C319.761 231.391 324.591 233.607 331.904 233.58C339.233 233.553 344.097 231.234 347.085 227.648C350.083 224.051 351.253 219.111 351.041 213.732C350.617 202.957 344.657 190.654 337.277 184.553C333.719 181.613 325.985 176.02 319.126 171.152C315.7 168.723 312.496 166.475 310.149 164.836C308.976 164.016 308.017 163.348 307.351 162.885C307.11 162.717 306.907 162.576 306.747 162.465L304.677 167.232L304.645 167.273L304.416 167.098C304.645 167.273 304.645 167.273 304.645 167.273L304.645 167.275L304.642 167.279L304.631 167.293C304.622 167.305 304.608 167.322 304.589 167.348C304.552 167.398 304.497 167.473 304.425 167.57C304.282 167.768 304.073 168.059 303.812 168.434C303.292 169.186 302.568 170.27 301.755 171.609C300.127 174.289 298.148 177.975 296.728 182.004C295.306 186.039 294.458 190.389 295.054 194.41C295.647 198.412 297.672 202.115 302.056 204.898C305.934 207.355 308.969 208.17 311.259 208.068C311.508 206.646 311.838 205.332 312.218 204.178C312.74 202.59 313.362 201.281 314.008 200.418C314.33 199.99 314.678 199.645 315.048 199.443C315.431 199.234 315.859 199.17 316.274 199.359C317.464 199.906 317.99 201.258 317.958 202.662C317.925 204.084 317.33 205.68 316.126 206.91C315.136 207.924 313.766 208.664 312.005 208.883ZM312.158 207.975C312.394 206.691 312.698 205.5 313.042 204.453C313.549 202.91 314.135 201.701 314.702 200.945C314.986 200.566 315.245 200.33 315.462 200.211C315.667 200.1 315.805 200.105 315.914 200.156L315.914 200.156C316.657 200.496 317.117 201.418 317.089 202.641C317.062 203.846 316.552 205.229 315.508 206.297C314.729 207.094 313.624 207.736 312.158 207.975Z" fill="#9A3B82" fill-opacity="1.000000" fill-rule="evenodd"/>
	<path id="Vector" d="M303.693 160.273L305.235 161.258C306.733 162.219 307.168 164.209 306.234 165.717L305.93 166.176C304.974 167.686 302.998 168.145 301.499 167.182L299.849 166.133C298.024 167.445 287.056 174.812 280.279 167.488C273.698 160.383 288.902 139.592 288.902 139.592C301.803 143.658 306.842 155.201 306.842 155.201L303.693 160.273Z" fill="#A0505A" fill-opacity="1.000000" fill-rule="nonzero"/>
	<path id="Vector (Stroke)" d="M284.26 144.162C284.343 143.936 284.594 143.82 284.818 143.904L284.667 144.314C284.818 143.904 284.818 143.904 284.819 143.904L284.819 143.904L284.82 143.904L284.824 143.906L284.834 143.91C284.842 143.914 284.854 143.918 284.869 143.924C284.898 143.936 284.94 143.953 284.993 143.977C285.098 144.023 285.245 144.092 285.419 144.184C285.768 144.367 286.23 144.646 286.685 145.031C287.59 145.801 288.51 147.035 288.313 148.779C288.136 150.35 287.264 152.322 286.537 153.967C286.512 154.023 286.487 154.08 286.462 154.137C286.083 154.994 285.752 155.752 285.561 156.346C285.465 156.643 285.413 156.875 285.401 157.041C285.393 157.152 285.405 157.199 285.409 157.211C285.731 157.561 286.111 157.771 286.417 157.895C286.572 157.957 286.704 157.998 286.795 158.02C286.841 158.031 286.876 158.039 286.899 158.045C286.91 158.047 286.918 158.047 286.922 158.049L286.926 158.049L286.925 158.049L286.925 158.049C286.925 158.049 286.926 158.049 286.926 158.049L286.926 158.049C286.927 158.049 286.927 158.049 286.926 158.049L286.926 158.049C287.163 158.086 287.326 158.307 287.291 158.545C287.255 158.785 287.034 158.949 286.797 158.914L286.861 158.48C286.797 158.914 286.796 158.914 286.796 158.914L286.796 158.914L286.795 158.914L286.793 158.914L286.789 158.912C286.786 158.912 286.781 158.912 286.775 158.91C286.765 158.908 286.75 158.906 286.731 158.902C286.695 158.895 286.645 158.885 286.583 158.869C286.459 158.838 286.289 158.785 286.093 158.707C285.703 158.549 285.196 158.27 284.76 157.793C284.541 157.555 284.516 157.232 284.534 156.977C284.554 156.707 284.631 156.398 284.735 156.076C284.943 155.43 285.295 154.625 285.668 153.781C285.682 153.75 285.695 153.719 285.709 153.688C286.462 151.984 287.289 150.113 287.45 148.682C287.601 147.342 286.913 146.369 286.125 145.701C285.732 145.367 285.326 145.121 285.017 144.959C284.862 144.877 284.734 144.816 284.646 144.779C284.602 144.76 284.567 144.744 284.545 144.736C284.534 144.73 284.525 144.729 284.521 144.727L284.516 144.725L284.516 144.725C284.516 144.725 284.515 144.725 284.515 144.725L284.515 144.725C284.515 144.725 284.515 144.725 284.515 144.725L284.515 144.725L284.26 144.162ZM284.26 144.162C284.176 144.389 284.291 144.641 284.515 144.725L284.26 144.162Z" fill="#73325A" fill-opacity="1.000000" fill-rule="evenodd"/>
	<path id="Vector (Stroke)" d="M283.796 160.34C283.584 160.721 283.584 160.723 283.584 160.723L283.585 160.723L283.586 160.723L283.588 160.725L283.597 160.729C283.603 160.732 283.612 160.736 283.624 160.742C283.647 160.756 283.681 160.773 283.724 160.795C283.811 160.838 283.936 160.896 284.096 160.965C284.417 161.104 284.88 161.277 285.459 161.434C286.616 161.746 288.242 161.986 290.118 161.689C290.355 161.652 290.518 161.43 290.48 161.189C290.443 160.951 290.221 160.789 289.984 160.826C288.254 161.098 286.753 160.879 285.684 160.59C285.149 160.445 284.725 160.285 284.436 160.16C284.292 160.1 284.182 160.047 284.109 160.01C284.073 159.992 284.046 159.979 284.029 159.969C284.02 159.965 284.014 159.961 284.011 159.959L284.007 159.957C284.007 159.957 284.007 159.957 284.007 159.957L284.007 159.957C283.797 159.84 283.533 159.916 283.417 160.127C283.3 160.338 283.375 160.604 283.584 160.721L283.796 160.34Z" fill="#73325A" fill-opacity="1.000000" fill-rule="evenodd"/>
	<path id="Vector" d="M295.153 155.965C295.461 155.152 295.356 154.357 294.918 154.189C294.481 154.023 293.878 154.545 293.57 155.357C293.263 156.17 293.368 156.965 293.805 157.131C294.242 157.299 294.846 156.777 295.153 155.965Z" fill="#73325A" fill-opacity="1.000000" fill-rule="nonzero"/>
	<path id="Vector" d="M285.126 151.334C285.383 150.656 285.291 149.992 284.921 149.85C284.551 149.709 284.043 150.143 283.787 150.818C283.531 151.496 283.623 152.16 283.993 152.303C284.362 152.443 284.87 152.01 285.126 151.334Z" fill="#73325A" fill-opacity="1.000000" fill-rule="nonzero"/>
	<path id="Vector (Stroke)" d="M305.153 163.77C304.4 163.287 303.409 163.51 302.929 164.27C302.8 164.473 302.532 164.533 302.329 164.404C302.127 164.273 302.067 164.004 302.196 163.801C302.932 162.635 304.46 162.289 305.619 163.031C305.821 163.162 305.881 163.432 305.752 163.635C305.624 163.84 305.355 163.898 305.153 163.77Z" fill="#73325A" fill-opacity="1.000000" fill-rule="evenodd"/>
	<path id="Vector (Stroke)" d="M294.128 150.08C294.191 149.848 294.43 149.711 294.661 149.773L294.548 150.195C294.661 149.773 294.662 149.773 294.662 149.773L294.662 149.773L294.663 149.773L294.667 149.775L294.675 149.777C294.683 149.779 294.692 149.781 294.705 149.785C294.729 149.793 294.763 149.805 294.805 149.818C294.89 149.848 295.009 149.893 295.155 149.955C295.447 150.082 295.846 150.285 296.29 150.592C297.178 151.207 298.242 152.24 298.964 153.912C299.06 154.135 298.959 154.391 298.739 154.488C298.519 154.584 298.263 154.482 298.167 154.262C297.521 152.764 296.576 151.852 295.798 151.312C295.408 151.043 295.059 150.867 294.811 150.76C294.687 150.705 294.589 150.668 294.523 150.646C294.491 150.635 294.466 150.627 294.451 150.623C294.444 150.619 294.438 150.619 294.436 150.617L294.433 150.617C294.202 150.553 294.066 150.314 294.128 150.08Z" fill="#73325A" fill-opacity="1.000000" fill-rule="evenodd"/>
	<path id="HAIR 1" d="M298.501 144.883C298.501 144.883 295.613 154.523 303.888 161.105C308.753 164.975 309.036 160.318 309.036 160.318C309.036 160.318 308.406 150.852 298.501 144.883Z" fill="#FFFFFF" fill-opacity="1.000000" fill-rule="nonzero"/>
	<path id="HAIR 1 (Stroke)" d="M298.246 144.221L298.725 144.51C303.765 147.547 306.453 151.48 307.878 154.66C308.59 156.248 308.987 157.648 309.206 158.652C309.316 159.156 309.381 159.561 309.419 159.842C309.438 159.982 309.45 160.092 309.458 160.168C309.461 160.205 309.464 160.234 309.466 160.256C309.467 160.266 309.467 160.273 309.468 160.279L309.468 160.287L309.468 160.289L309.468 160.289C309.469 160.289 309.469 160.289 309.035 160.318C309.469 160.346 309.469 160.346 309.469 160.346L309.469 160.348L309.468 160.354C309.468 160.355 309.468 160.361 309.467 160.367C309.466 160.379 309.465 160.395 309.463 160.414C309.459 160.453 309.453 160.508 309.443 160.574C309.424 160.707 309.391 160.893 309.334 161.102C309.223 161.51 309.009 162.057 308.592 162.473C308.155 162.912 307.526 163.176 306.68 163.049C305.862 162.924 304.861 162.438 303.618 161.449C299.368 158.068 297.98 153.893 297.659 150.57C297.499 148.912 297.604 147.465 297.749 146.432C297.822 145.916 297.905 145.5 297.97 145.213C298.002 145.07 298.031 144.959 298.051 144.881C298.062 144.842 298.069 144.812 298.075 144.793C298.078 144.781 298.081 144.773 298.083 144.768L298.084 144.762L298.085 144.76L298.085 144.758C298.085 144.758 298.085 144.758 298.501 144.885L298.085 144.758L298.246 144.221ZM298.781 145.57C298.728 145.824 298.666 146.156 298.609 146.555C298.472 147.535 298.372 148.91 298.523 150.484C298.827 153.627 300.132 157.562 304.157 160.764C305.347 161.709 306.206 162.092 306.809 162.184C307.384 162.27 307.737 162.096 307.979 161.854C308.242 161.592 308.402 161.213 308.496 160.871C308.542 160.703 308.568 160.555 308.583 160.449C308.591 160.396 308.596 160.355 308.599 160.328C308.599 160.324 308.599 160.32 308.599 160.318C308.598 160.303 308.596 160.281 308.593 160.254C308.587 160.189 308.576 160.09 308.558 159.959C308.523 159.699 308.462 159.318 308.358 158.84C308.149 157.885 307.77 156.543 307.086 155.02C305.769 152.08 303.321 148.455 298.781 145.57ZM309.035 160.318L309.469 160.346L309.47 160.318L309.469 160.289L309.035 160.318Z" fill="#9A3B82" fill-opacity="1.000000" fill-rule="evenodd"/>
</svg>
