<svg width="48.000000" height="48.000000" viewBox="0 0 48 48" fill="none" xmlns="http://www.w3.org/2000/svg" xmlns:xlink="http://www.w3.org/1999/xlink">
	<desc>
			Created with Pixso.
	</desc>
	<defs>
		<clipPath id="clip27_1050">
			<rect id="ic-calendar" width="48.000000" height="48.000000" fill="white" fill-opacity="0"/>
		</clipPath>
	</defs>
	<g clip-path="url(#clip27_1050)">
		<path id="Vector" d="M43.6309 17.7119C43.4565 17.5381 43.2158 17.4375 42.9683 17.4375C42.7217 17.4375 42.48 17.5381 42.3057 17.7119C42.1309 17.8867 42.0308 18.1289 42.0308 18.375C42.0308 18.6211 42.1309 18.8633 42.3057 19.0381C42.48 19.2119 42.7217 19.3125 42.9683 19.3125C43.2158 19.3125 43.4565 19.2119 43.6309 19.0381C43.8052 18.8633 43.9058 18.6211 43.9058 18.375C43.9058 18.1289 43.8057 17.8867 43.6309 17.7119Z" fill="#FF3F3A" fill-opacity="1.000000" fill-rule="nonzero"/>
		<path id="Vector" d="M42.7812 6.9375L41.7075 6.9375C41.8735 6.76855 41.9761 6.53711 41.9761 6.28125L41.9761 5.0625C41.9761 3.30469 40.5464 1.875 38.7886 1.875C37.0312 1.875 35.6011 3.30469 35.6011 5.0625L35.6011 6.9375L26.9072 6.9375C27.0728 6.76855 27.1758 6.53711 27.1758 6.28125L27.1758 5.0625C27.1758 3.30469 25.7456 1.875 23.9883 1.875C22.2305 1.875 20.8008 3.30469 20.8008 5.0625L20.8008 6.9375L12.1064 6.9375C12.2725 6.76855 12.375 6.53711 12.375 6.28125L12.375 5.0625C12.375 3.30469 10.9453 1.875 9.1875 1.875C7.42969 1.875 6 3.30469 6 5.0625L6 6.9375L5.21875 6.9375C2.34131 6.9375 0 9.27832 0 12.1562L0 43.3125C0 44.8633 1.26172 46.125 2.8125 46.125L19 46.125C19.5176 46.125 19.9375 45.7051 19.9375 45.1875C19.9375 44.6699 19.5176 44.25 19 44.25L2.8125 44.25C2.29541 44.25 1.875 43.8291 1.875 43.3125L1.875 19.3125L38.3755 19.3125C38.8936 19.3125 39.313 18.8926 39.313 18.375C39.313 17.8574 38.8936 17.4375 38.3755 17.4375L1.875 17.4375L1.875 12.1562C1.875 10.3125 3.375 8.8125 5.21875 8.8125L6 8.8125L6 11.0781C6 12.8359 7.42969 14.2656 9.1875 14.2656C10.9453 14.2656 12.375 12.8359 12.375 11.0781C12.375 10.5605 11.9551 10.1406 11.4375 10.1406C10.9199 10.1406 10.5 10.5605 10.5 11.0781C10.5 11.8018 9.91113 12.3906 9.1875 12.3906C8.46387 12.3906 7.875 11.8018 7.875 11.0781L7.875 8.8125L20.8008 8.8125L20.8008 11.0781C20.8008 12.8359 22.2305 14.2656 23.9883 14.2656C25.7456 14.2656 27.1758 12.8359 27.1758 11.0781C27.1758 10.5605 26.7559 10.1406 26.2383 10.1406C25.7202 10.1406 25.3008 10.5605 25.3008 11.0781C25.3008 11.8018 24.7119 12.3906 23.9883 12.3906C23.2642 12.3906 22.6758 11.8018 22.6758 11.0781L22.6758 8.8125L35.6011 8.8125L35.6011 11.0781C35.6011 12.8359 37.0312 14.2656 38.7886 14.2656C40.5464 14.2656 41.9761 12.8359 41.9761 11.0781C41.9761 10.5605 41.5562 10.1406 41.0386 10.1406C40.521 10.1406 40.1011 10.5605 40.1011 11.0781C40.1011 11.8018 39.5122 12.3906 38.7886 12.3906C38.0649 12.3906 37.4761 11.8018 37.4761 11.0781L37.4761 8.8125L42.7812 8.8125C44.625 8.8125 46.125 10.3125 46.125 12.1562L46.125 43.3125C46.125 43.8291 45.7046 44.25 45.1875 44.25L29 44.25C28.4824 44.25 28.0625 44.6699 28.0625 45.1875C28.0625 45.7051 28.4824 46.125 29 46.125L45.1875 46.125C46.7383 46.125 48 44.8633 48 43.3125L48 12.1562C48 9.27832 45.6587 6.9375 42.7812 6.9375ZM7.875 6.9375L7.875 5.0625C7.875 4.33887 8.46387 3.75 9.1875 3.75C9.91113 3.75 10.5 4.33887 10.5 5.0625L10.5 6.28125C10.5 6.53711 10.6025 6.76855 10.7686 6.9375L7.875 6.9375ZM22.6758 6.9375L22.6758 5.0625C22.6758 4.33887 23.2642 3.75 23.9883 3.75C24.7119 3.75 25.3008 4.33887 25.3008 5.0625L25.3008 6.28125C25.3008 6.53711 25.4033 6.76855 25.5693 6.9375L22.6758 6.9375ZM37.4761 6.9375L37.4761 5.0625C37.4761 4.33887 38.0649 3.75 38.7886 3.75C39.5122 3.75 40.1011 4.33887 40.1011 5.0625L40.1011 6.28125C40.1011 6.53711 40.2036 6.76855 40.3696 6.9375L37.4761 6.9375Z" fill="#FF3F3A" fill-opacity="1.000000" fill-rule="nonzero"/>
		<path id="Vector" d="M9 22.3125C6.82861 22.3125 5.0625 24.0791 5.0625 26.25C5.0625 28.4209 6.82861 30.1875 9 30.1875C11.1714 30.1875 12.9375 28.4209 12.9375 26.25C12.9375 24.0791 11.1714 22.3125 9 22.3125ZM9 28.3125C7.86279 28.3125 6.9375 27.3877 6.9375 26.25C6.9375 25.1123 7.86279 24.1875 9 24.1875C10.1372 24.1875 11.0625 25.1123 11.0625 26.25C11.0625 27.3877 10.1372 28.3125 9 28.3125Z" fill="#FF3F3A" fill-opacity="1.000000" fill-rule="nonzero"/>
		<path id="Vector" d="M39 22.3125C36.8286 22.3125 35.0625 24.0791 35.0625 26.25C35.0625 28.4209 36.8286 30.1875 39 30.1875C41.1714 30.1875 42.9375 28.4209 42.9375 26.25C42.9375 24.0791 41.1714 22.3125 39 22.3125ZM39 28.3125C37.8628 28.3125 36.9375 27.3877 36.9375 26.25C36.9375 25.1123 37.8628 24.1875 39 24.1875C40.1372 24.1875 41.0625 25.1123 41.0625 26.25C41.0625 27.3877 40.1372 28.3125 39 28.3125Z" fill="#FF3F3A" fill-opacity="1.000000" fill-rule="nonzero"/>
		<path id="Vector" d="M29.001 22.3125C26.8296 22.3125 25.0635 24.0791 25.0635 26.25C25.0635 28.4209 26.8296 30.1875 29.001 30.1875C31.1724 30.1875 32.9385 28.4209 32.9385 26.25C32.9385 24.0791 31.1724 22.3125 29.001 22.3125ZM29.001 28.3125C27.8638 28.3125 26.9385 27.3877 26.9385 26.25C26.9385 25.1123 27.8638 24.1875 29.001 24.1875C30.1382 24.1875 31.0635 25.1123 31.0635 26.25C31.0635 27.3877 30.1382 28.3125 29.001 28.3125Z" fill="#FF3F3A" fill-opacity="1.000000" fill-rule="nonzero"/>
		<path id="Vector" d="M18.999 22.3125C16.8276 22.3125 15.0615 24.0791 15.0615 26.25C15.0615 28.4209 16.8276 30.1875 18.999 30.1875C21.1704 30.1875 22.9365 28.4209 22.9365 26.25C22.9365 24.0791 21.1704 22.3125 18.999 22.3125ZM18.999 28.3125C17.8618 28.3125 16.9365 27.3877 16.9365 26.25C16.9365 25.1123 17.8618 24.1875 18.999 24.1875C20.1362 24.1875 21.0615 25.1123 21.0615 26.25C21.0615 27.3877 20.1362 28.3125 18.999 28.3125Z" fill="#FF3F3A" fill-opacity="1.000000" fill-rule="nonzero"/>
		<path id="Vector" d="M9 33.75C6.82861 33.75 5.0625 35.5166 5.0625 37.6875C5.0625 39.8584 6.82861 41.625 9 41.625C11.1714 41.625 12.9375 39.8584 12.9375 37.6875C12.9375 35.5166 11.1714 33.75 9 33.75ZM9 39.75C7.86279 39.75 6.9375 38.8252 6.9375 37.6875C6.9375 36.5498 7.86279 35.625 9 35.625C10.1372 35.625 11.0625 36.5498 11.0625 37.6875C11.0625 38.8252 10.1372 39.75 9 39.75Z" fill="#FF3F3A" fill-opacity="1.000000" fill-rule="nonzero"/>
		<path id="Vector" d="M29.001 33.75C26.8296 33.75 25.0635 35.5166 25.0635 37.6875C25.0635 39.8584 26.8296 41.625 29.001 41.625C31.1724 41.625 32.9385 39.8584 32.9385 37.6875C32.9385 35.5166 31.1724 33.75 29.001 33.75ZM29.001 39.75C27.8638 39.75 26.9385 38.8252 26.9385 37.6875C26.9385 36.5498 27.8638 35.625 29.001 35.625C30.1382 35.625 31.0635 36.5498 31.0635 37.6875C31.0635 38.8252 30.1382 39.75 29.001 39.75Z" fill="#FF3F3A" fill-opacity="1.000000" fill-rule="nonzero"/>
		<path id="Vector" d="M39 33.75C36.8286 33.75 35.0625 35.5166 35.0625 37.6875C35.0625 39.8584 36.8286 41.625 39 41.625C41.1714 41.625 42.9375 39.8584 42.9375 37.6875C42.9375 35.5166 41.1714 33.75 39 33.75ZM39 39.75C37.8628 39.75 36.9375 38.8252 36.9375 37.6875C36.9375 36.5498 37.8628 35.625 39 35.625C40.1372 35.625 41.0625 36.5498 41.0625 37.6875C41.0625 38.8252 40.1372 39.75 39 39.75Z" fill="#FF3F3A" fill-opacity="1.000000" fill-rule="nonzero"/>
		<path id="Vector" d="M18.999 33.75C16.8276 33.75 15.0615 35.5166 15.0615 37.6875C15.0615 39.8584 16.8276 41.625 18.999 41.625C21.1704 41.625 22.9365 39.8584 22.9365 37.6875C22.9365 35.5166 21.1704 33.75 18.999 33.75ZM18.999 39.75C17.8618 39.75 16.9365 38.8252 16.9365 37.6875C16.9365 36.5498 17.8618 35.625 18.999 35.625C20.1362 35.625 21.0615 36.5498 21.0615 37.6875C21.0615 38.8252 20.1362 39.75 18.999 39.75Z" fill="#FF3F3A" fill-opacity="1.000000" fill-rule="nonzero"/>
		<path id="Vector" d="M24.6626 44.5244C24.4883 44.3506 24.2466 44.25 24 44.25C23.7524 44.25 23.5117 44.3506 23.3374 44.5244C23.1621 44.6992 23.0625 44.9414 23.0625 45.1875C23.0625 45.4336 23.1621 45.6758 23.3374 45.8506C23.5117 46.0244 23.7524 46.125 24 46.125C24.2466 46.125 24.4883 46.0244 24.6626 45.8506C24.8369 45.6758 24.9375 45.4336 24.9375 45.1875C24.9375 44.9414 24.8374 44.6992 24.6626 44.5244Z" fill="#FF3F3A" fill-opacity="1.000000" fill-rule="nonzero"/>
	</g>
</svg>
