<svg width="48.000000" height="48.000000" viewBox="0 0 48 48" fill="none" xmlns="http://www.w3.org/2000/svg" xmlns:xlink="http://www.w3.org/1999/xlink">
	<desc>
			Created with Pixso.
	</desc>
	<defs>
		<clipPath id="clip26_1557">
			<rect id="ic-structure" width="48.000000" height="48.000000" fill="white" fill-opacity="0"/>
		</clipPath>
	</defs>
	<g clip-path="url(#clip26_1557)">
		<path id="Vector" d="M32.8022 23.6182C32.6279 23.4443 32.3862 23.3438 32.1396 23.3438C31.8931 23.3438 31.6514 23.4443 31.4771 23.6182C31.3027 23.793 31.2026 24.0342 31.2026 24.2812C31.2026 24.5273 31.3027 24.7686 31.4771 24.9434C31.6514 25.1172 31.8931 25.2178 32.1396 25.2178C32.3862 25.2178 32.627 25.1172 32.8022 24.9434C32.9761 24.7686 33.0767 24.5273 33.0767 24.2812C33.0767 24.0342 32.9766 23.793 32.8022 23.6182Z" fill="#FF3F3A" fill-opacity="1.000000" fill-rule="nonzero"/>
		<path id="Vector" d="M38.9805 2.54199L8.99561 2.54199C8.47803 2.54199 8.05859 2.96191 8.05859 3.47949L8.05859 18.4717C8.05859 18.9893 8.47803 19.4082 8.99561 19.4082L23.0513 19.4082L23.0513 23.3438L7.04346 23.3438C6.52637 23.3438 6.10645 23.7637 6.10645 24.2812L6.10645 31.5898L0.937012 31.5898C0.419434 31.5898 0 32.0098 0 32.5273L0 44.5215C0 45.0391 0.419434 45.458 0.937012 45.458L12.9312 45.458C13.4487 45.458 13.8682 45.0391 13.8682 44.5215L13.8682 32.5273C13.8682 32.0098 13.4487 31.5898 12.9312 31.5898L7.98047 31.5898L7.98047 25.2178L23.0513 25.2178L23.0513 31.5898L18.0029 31.5898C17.4854 31.5898 17.0659 32.0098 17.0659 32.5273L17.0659 44.5215C17.0659 45.0391 17.4854 45.458 18.0029 45.458L29.9971 45.458C30.5146 45.458 30.9341 45.0391 30.9341 44.5215L30.9341 32.5273C30.9341 32.0098 30.5146 31.5898 29.9971 31.5898L24.9253 31.5898L24.9253 25.2178L28.6733 25.2178C29.1909 25.2178 29.6104 24.7988 29.6104 24.2812C29.6104 23.7637 29.1909 23.3438 28.6733 23.3438L24.9253 23.3438L24.9253 19.4082L38.981 19.4082C39.498 19.4082 39.918 18.9893 39.918 18.4717L39.918 3.47949C39.9175 2.96191 39.498 2.54199 38.9805 2.54199ZM11.9941 33.4639L11.9941 43.584L1.87402 43.584L1.87402 33.4639L11.9941 33.4639ZM29.0601 33.4639L29.0601 43.584L18.9399 43.584L18.9399 33.4639L29.0601 33.4639ZM38.0435 17.5342L9.93262 17.5342L9.93262 8.16406L16.2803 8.16406C16.7979 8.16406 17.2173 7.74414 17.2173 7.22754C17.2173 6.70996 16.7979 6.29004 16.2803 6.29004L9.93262 6.29004L9.93262 4.41602L38.0435 4.41602L38.0435 17.5342L38.0435 17.5342Z" fill="#FF3F3A" fill-opacity="1.000000" fill-rule="nonzero"/>
		<path id="Vector" d="M47.0635 31.5898L41.8701 31.5898L41.8701 24.2812C41.8701 23.7637 41.4507 23.3438 40.9331 23.3438L35.7954 23.3438C35.2778 23.3438 34.8579 23.7637 34.8579 24.2812C34.8579 24.7979 35.2778 25.2178 35.7954 25.2178L39.9961 25.2178L39.9961 31.5898L35.0693 31.5898C34.5518 31.5898 34.1323 32.0088 34.1323 32.5264L34.1323 44.5205C34.1323 45.0381 34.5518 45.458 35.0693 45.458L47.0635 45.458C47.5811 45.458 48.0005 45.0381 48.0005 44.5205L48.0005 32.5264C48.0005 32.0088 47.5811 31.5898 47.0635 31.5898ZM46.1265 43.584L36.0063 43.584L36.0063 33.4639L46.1265 33.4639L46.1265 43.584Z" fill="#FF3F3A" fill-opacity="1.000000" fill-rule="nonzero"/>
		<path id="Vector" d="M20.8848 6.56445C20.7104 6.39062 20.4688 6.29004 20.2222 6.29004C19.9751 6.29004 19.7339 6.39062 19.5586 6.56445C19.3848 6.73926 19.2852 6.98047 19.2852 7.22754C19.2852 7.47363 19.3848 7.71484 19.5586 7.88965C19.7339 8.06348 19.9756 8.16406 20.2222 8.16406C20.4688 8.16406 20.7095 8.06348 20.8848 7.88965C21.0591 7.71484 21.1592 7.47363 21.1592 7.22754C21.1592 6.98047 21.0591 6.73926 20.8848 6.56445Z" fill="#FF3F3A" fill-opacity="1.000000" fill-rule="nonzero"/>
	</g>
</svg>
