<svg width="21.000000" height="16.333984" viewBox="0 0 21 16.334" fill="none" xmlns="http://www.w3.org/2000/svg" xmlns:xlink="http://www.w3.org/1999/xlink">
	<desc>
			Created with Pixso.
	</desc>
	<defs/>
	<path id="Vector" d="M21 1.93164C20.2271 2.25977 19.3979 2.48242 18.5264 2.58203C19.416 2.07227 20.0972 1.26367 20.4199 0.300781C19.5854 0.773438 18.6641 1.11719 17.6826 1.30273C16.8965 0.5 15.7783 0 14.5386 0C12.1592 0 10.2305 1.84766 10.2305 4.12305C10.2305 4.44727 10.2686 4.76172 10.3418 5.06445C6.76221 4.89062 3.58789 3.25 1.46338 0.753906C1.0918 1.36133 0.880371 2.07031 0.880371 2.82617C0.880371 4.25781 1.6416 5.52148 2.79639 6.25977C2.09033 6.23633 1.42627 6.05078 0.845215 5.74219L0.845215 5.79297C0.845215 7.79102 2.33057 9.45898 4.30029 9.83789C3.93945 9.93164 3.55859 9.98242 3.16504 9.98242C2.88672 9.98242 2.61816 9.95703 2.354 9.90625C2.90283 11.5469 4.49316 12.7383 6.37744 12.7715C4.90381 13.877 3.0459 14.5332 1.02734 14.5332C0.679688 14.5332 0.337402 14.5137 0 14.4766C1.90674 15.6504 4.17041 16.334 6.60352 16.334C14.5278 16.334 18.8599 10.0488 18.8599 4.59766L18.8452 4.06445C19.6919 3.48633 20.4238 2.75977 21 1.93164Z" fill="#FFFFFF" fill-opacity="1.000000" fill-rule="nonzero"/>
</svg>
