<svg width="11.579102" height="22.000000" viewBox="0 0 11.5791 22" fill="none" xmlns="http://www.w3.org/2000/svg" xmlns:xlink="http://www.w3.org/1999/xlink">
	<desc>
			Created with Pixso.
	</desc>
	<defs/>
	<path id="Vector" d="M11.1431 0.00390625L8.36572 0C5.24561 0 3.229 2.125 3.229 5.41406L3.229 7.91016L0.436523 7.91016C0.195312 7.91016 0 8.11133 0 8.35938L0 11.9766C0 12.2246 0.195801 12.4258 0.436523 12.4258L3.229 12.4258L3.229 21.5508C3.229 21.7988 3.42432 22 3.66602 22L7.30908 22C7.55029 22 7.74561 21.7988 7.74561 21.5508L7.74561 12.4258L11.0107 12.4258C11.252 12.4258 11.4473 12.2246 11.4473 11.9766L11.4487 8.35938C11.4487 8.24023 11.4028 8.12695 11.3208 8.04297C11.2393 7.95703 11.1279 7.91016 11.0117 7.91016L7.74561 7.91016L7.74561 5.79492C7.74561 4.77734 7.98193 4.26172 9.27148 4.26172L11.1426 4.25977C11.3838 4.25977 11.5791 4.05859 11.5791 3.8125L11.5791 0.453125C11.5791 0.205078 11.3838 0.00585938 11.1431 0.00390625Z" fill="#FFFFFF" fill-opacity="1.000000" fill-rule="nonzero"/>
</svg>
